<?xml version="1.0" encoding="UTF-8" standalone="no"?>
<!-- Created with Inkscape (http://www.inkscape.org/) -->

<svg
   version="1.1"
   id="svg3627"
   xml:space="preserve"
   width="2925.5481"
   height="194.5457"
   xmlns:inkscape="http://www.inkscape.org/namespaces/inkscape"
   xmlns:sodipodi="http://sodipodi.sourceforge.net/DTD/sodipodi-0.dtd"
   xmlns="http://www.w3.org/2000/svg"
   xmlns:svg="http://www.w3.org/2000/svg"><defs
     id="defs3631" /><sodipodi:namedview
     id="namedview3629"
     pagecolor="#505050"
     bordercolor="#eeeeee"
     borderopacity="1"
     inkscape:showpageshadow="0"
     inkscape:pageopacity="0"
     inkscape:pagecheckerboard="0"
     inkscape:deskcolor="#d1d1d1" /><inkscape:clipboard
     min="942.25342,1342.411"
     max="3867.8016,1536.9567"
     geom-min="942.25342,1342.411"
     geom-max="3867.8016,1536.4635" /><g
     id="g3633"
     transform="matrix(0.13333334,0,0,-0.13333334,-142.06534,225.5593)"><path
       d="M 23004.58,241.54425 H 1069.8807 V 1691.6947 H 23004.58 V 241.54425"
       style="fill:#ffffff;fill-opacity:1;fill-rule:nonzero;stroke:none;stroke-width:0.999991"
       id="path213" /><path
       d="m 20318.5,255.5 c -39.8,113.398 38.3,262.902 155.8,288.301 150.3,32.398 329,-94.801 448.3,2.301 36.6,29.8 58.2,76.199 98.3,101 92,56.796 203,-30.2 309.1,-51.102 194.3,-38.301 358.8,151.102 553.7,186.902 151.8,27.899 317.3,-51.101 391.1,-186.703 39.3,-72.301 66.9,-168.801 147.1,-187.097 68.6,-15.602 131.2,38.199 197.2,62.597 145.4,53.5 325.3,-80.5 326.9,-235.398 L 20318.5,255.5"
       style="fill:#2d7dc3;fill-opacity:1;fill-rule:nonzero;stroke:none"
       id="path215" /><path
       d="m 4243.63,253.801 c 0,166.801 46.19,380.398 267.88,421.199 256.09,47.199 323.49,-208.898 520.61,-193.699 197.12,15.097 288.1,121.301 454.89,60.601 166.8,-60.601 106.27,-213.101 318.43,-181.902 183.65,26.902 257.89,-18.301 289.79,-48.898 42.12,-40.403 37.06,-72.403 37.06,-72.403 l -1888.66,15.102"
       style="fill:#2d7dc3;fill-opacity:1;fill-rule:nonzero;stroke:none"
       id="path217" /><path
       d="m 1790.46,251.102 c 5.71,19.898 8.82,40.898 8.82,62.597 0,125.403 -101.61,227 -226.96,227 -125.34,0 -226.95,-101.597 -226.95,-227 0,-21.699 3.11,-42.699 8.81,-62.597 h 436.28"
       style="fill:#2d7dc3;fill-opacity:1;fill-rule:nonzero;stroke:none"
       id="path239" /><path
       d="m 2651.33,251.102 c 5.7,19.898 8.82,40.898 8.82,62.597 0,125.403 -101.61,227 -226.96,227 -125.34,0 -226.95,-101.597 -226.95,-227 0,-21.699 3.11,-42.699 8.81,-62.597 h 436.28"
       style="fill:#2d7dc3;fill-opacity:1;fill-rule:nonzero;stroke:none"
       id="path241" /><path
       d="m 2289.64,251.102 c 29.01,49.398 45.73,106.898 45.73,168.3 0,183.7 -148.92,332.598 -332.61,332.598 -183.69,0 -332.61,-148.898 -332.61,-332.598 0,-61.402 16.71,-118.902 45.73,-168.3 h 573.76"
       style="fill:#2d7dc3;fill-opacity:1;fill-rule:nonzero;stroke:none"
       id="path243" /><path
       d="M 1065.49,242.602 H 23007.1"
       style="fill:none;stroke:#16161e;stroke-width:20;stroke-linecap:butt;stroke-linejoin:miter;stroke-miterlimit:10;stroke-dasharray:none;stroke-opacity:1"
       id="path803" /><path
       d="m 6300.77,521.102 c 50.52,-50.5 33.43,-149.5 33.43,-149.5 0,0 -99.02,-17.102 -149.54,33.398 -50.52,50.5 -33.42,149.5 -33.42,149.5 0,0 99.01,17.102 149.53,-33.398 z"
       style="fill:none;stroke:#d1d2dc;stroke-width:20;stroke-linecap:butt;stroke-linejoin:miter;stroke-miterlimit:10;stroke-dasharray:none;stroke-opacity:1"
       id="path807" /><path
       d="m 6371.28,398.801 c 33.03,33 97.78,21.801 97.78,21.801 0,0 11.18,-64.7 -21.86,-97.801 -33.04,-33 -97.78,-21.801 -97.78,-21.801 0,0 -11.18,64.699 21.86,97.801 z"
       style="fill:none;stroke:#d1d2dc;stroke-width:20;stroke-linecap:butt;stroke-linejoin:miter;stroke-miterlimit:10;stroke-dasharray:none;stroke-opacity:1"
       id="path809" /><path
       d="m 6339.71,626.902 v -366.5"
       style="fill:none;stroke:#d1d2dc;stroke-width:20;stroke-linecap:butt;stroke-linejoin:miter;stroke-miterlimit:10;stroke-dasharray:none;stroke-opacity:1"
       id="path811" /><path
       d="m 6419.43,832.5 -41.2,-44.699 -41.2,44.699 -41.13,-44.699 -41.12,44.699 V 702.199 c 0,-45.5 36.86,-82.301 82.33,-82.301 45.46,0 82.32,36.801 82.32,82.301 V 832.5"
       style="fill:#d1d2dc;fill-opacity:1;fill-rule:nonzero;stroke:none"
       id="path813" /><path
       d="m 6668.41,626.902 v -366.5"
       style="fill:none;stroke:#d1d2dc;stroke-width:20;stroke-linecap:butt;stroke-linejoin:miter;stroke-miterlimit:10;stroke-dasharray:none;stroke-opacity:1"
       id="path815" /><path
       d="m 6748.13,832.5 -41.2,-44.699 -41.2,44.699 -41.13,-44.699 -41.12,44.699 V 702.199 c 0,-45.5 36.86,-82.301 82.32,-82.301 45.47,0 82.33,36.801 82.33,82.301 V 832.5"
       style="fill:#d1d2dc;fill-opacity:1;fill-rule:nonzero;stroke:none"
       id="path817" /><path
       d="m 6958.16,521.102 c 50.53,-50.5 33.43,-149.5 33.43,-149.5 0,0 -99.01,-17.102 -149.54,33.398 -50.52,50.5 -33.42,149.5 -33.42,149.5 0,0 99.01,17.102 149.53,-33.398 z"
       style="fill:none;stroke:#d1d2dc;stroke-width:20;stroke-linecap:butt;stroke-linejoin:miter;stroke-miterlimit:10;stroke-dasharray:none;stroke-opacity:1"
       id="path819" /><path
       d="m 6997.11,626.902 v -366.5"
       style="fill:none;stroke:#d1d2dc;stroke-width:20;stroke-linecap:butt;stroke-linejoin:miter;stroke-miterlimit:10;stroke-dasharray:none;stroke-opacity:1"
       id="path821" /><path
       d="m 7076.82,832.5 -41.2,-44.699 -41.19,44.699 -41.14,-44.699 -41.12,44.699 V 702.199 c 0,-45.5 36.86,-82.301 82.33,-82.301 45.46,0 82.32,36.801 82.32,82.301 V 832.5"
       style="fill:#2d7dc3;fill-opacity:1;fill-rule:nonzero;stroke:none"
       id="path823" /><path
       d="m 7357.36,398.801 c 33.04,33 97.79,21.801 97.79,21.801 0,0 11.18,-64.7 -21.86,-97.801 -33.04,-33 -97.78,-21.801 -97.78,-21.801 0,0 -11.19,64.699 21.85,97.801 z"
       style="fill:none;stroke:#d1d2dc;stroke-width:20;stroke-linecap:butt;stroke-linejoin:miter;stroke-miterlimit:10;stroke-dasharray:none;stroke-opacity:1"
       id="path825" /><path
       d="m 7325.8,626.902 v -366.5"
       style="fill:none;stroke:#d1d2dc;stroke-width:20;stroke-linecap:butt;stroke-linejoin:miter;stroke-miterlimit:10;stroke-dasharray:none;stroke-opacity:1"
       id="path827" /><path
       d="m 7405.52,832.5 -41.2,-44.699 -41.2,44.699 -41.13,-44.699 -41.12,44.699 V 702.199 c 0,-45.5 36.86,-82.301 82.32,-82.301 45.47,0 82.33,36.801 82.33,82.301 V 832.5"
       style="fill:#d1d2dc;fill-opacity:1;fill-rule:nonzero;stroke:none"
       id="path829" /><path
       d="m 7686.06,398.801 c 33.04,33 97.78,21.801 97.78,21.801 0,0 11.18,-64.7 -21.86,-97.801 -33.03,-33 -97.78,-21.801 -97.78,-21.801 0,0 -11.18,64.699 21.86,97.801 z"
       style="fill:none;stroke:#d1d2dc;stroke-width:20;stroke-linecap:butt;stroke-linejoin:miter;stroke-miterlimit:10;stroke-dasharray:none;stroke-opacity:1"
       id="path831" /><path
       d="m 7654.5,626.902 v -366.5"
       style="fill:none;stroke:#d1d2dc;stroke-width:20;stroke-linecap:butt;stroke-linejoin:miter;stroke-miterlimit:10;stroke-dasharray:none;stroke-opacity:1"
       id="path833" /><path
       d="m 7734.21,832.5 -41.19,-44.699 -41.2,44.699 -41.13,-44.699 -41.13,44.699 V 702.199 c 0,-45.5 36.86,-82.301 82.33,-82.301 45.46,0 82.32,36.801 82.32,82.301 V 832.5"
       style="fill:#d1d2dc;fill-opacity:1;fill-rule:nonzero;stroke:none"
       id="path835" /><path
       d="m 17603.2,398.801 c 33,33 97.7,21.801 97.7,21.801 0,0 11.2,-64.7 -21.8,-97.801 -33,-33 -97.8,-21.801 -97.8,-21.801 0,0 -11.2,64.699 21.9,97.801 z"
       style="fill:none;stroke:#d1d2dc;stroke-width:20;stroke-linecap:butt;stroke-linejoin:miter;stroke-miterlimit:10;stroke-dasharray:none;stroke-opacity:1"
       id="path837" /><path
       d="m 17571.6,626.902 v -366.5"
       style="fill:none;stroke:#d1d2dc;stroke-width:20;stroke-linecap:butt;stroke-linejoin:miter;stroke-miterlimit:10;stroke-dasharray:none;stroke-opacity:1"
       id="path839" /><path
       d="m 17651.3,832.5 -41.2,-44.699 -41.2,44.699 -41.1,-44.699 -41.1,44.699 V 702.199 c 0,-45.5 36.8,-82.301 82.3,-82.301 45.5,0 82.3,36.801 82.3,82.301 V 832.5"
       style="fill:#2d7dc3;fill-opacity:1;fill-rule:nonzero;stroke:none"
       id="path841" /><path
       d="m 17978.5,398.801 c 33.1,33 97.8,21.801 97.8,21.801 0,0 11.2,-64.7 -21.9,-97.801 -33,-33 -97.7,-21.801 -97.7,-21.801 0,0 -11.2,64.699 21.8,97.801 z"
       style="fill:none;stroke:#d1d2dc;stroke-width:20;stroke-linecap:butt;stroke-linejoin:miter;stroke-miterlimit:10;stroke-dasharray:none;stroke-opacity:1"
       id="path843" /><path
       d="m 17947,626.902 v -366.5"
       style="fill:none;stroke:#d1d2dc;stroke-width:20;stroke-linecap:butt;stroke-linejoin:miter;stroke-miterlimit:10;stroke-dasharray:none;stroke-opacity:1"
       id="path845" /><path
       d="m 18026.7,832.5 -41.2,-44.699 -41.2,44.699 -41.2,-44.699 -41.1,44.699 V 702.199 c 0,-45.5 36.9,-82.301 82.3,-82.301 45.5,0 82.4,36.801 82.4,82.301 V 832.5"
       style="fill:#2d7dc3;fill-opacity:1;fill-rule:nonzero;stroke:none"
       id="path847" /><path
       d="m 18353.9,398.801 c 33,33 97.8,21.801 97.8,21.801 0,0 11.1,-64.7 -21.9,-97.801 -33,-33 -97.8,-21.801 -97.8,-21.801 0,0 -11.2,64.699 21.9,97.801 z"
       style="fill:none;stroke:#d1d2dc;stroke-width:20;stroke-linecap:butt;stroke-linejoin:miter;stroke-miterlimit:10;stroke-dasharray:none;stroke-opacity:1"
       id="path849" /><path
       d="m 18322.3,626.902 v -366.5"
       style="fill:none;stroke:#d1d2dc;stroke-width:20;stroke-linecap:butt;stroke-linejoin:miter;stroke-miterlimit:10;stroke-dasharray:none;stroke-opacity:1"
       id="path851" /><path
       d="m 18402,832.5 -41.2,-44.699 -41.2,44.699 -41.1,-44.699 -41.1,44.699 V 702.199 c 0,-45.5 36.8,-82.301 82.3,-82.301 45.5,0 82.3,36.801 82.3,82.301 V 832.5"
       style="fill:#2d7dc3;fill-opacity:1;fill-rule:nonzero;stroke:none"
       id="path853" /><path
       d="M 2660.15,516.5 H 4197.98"
       style="fill:none;stroke:#16161e;stroke-width:20;stroke-linecap:butt;stroke-linejoin:miter;stroke-miterlimit:10;stroke-dasharray:none;stroke-opacity:1"
       id="path855" /><path
       d="M 2871.45,446 V 313"
       style="fill:none;stroke:#16161e;stroke-width:20;stroke-linecap:butt;stroke-linejoin:miter;stroke-miterlimit:10;stroke-dasharray:none;stroke-opacity:1"
       id="path857" /><path
       d="M 3106.24,446 V 313"
       style="fill:none;stroke:#16161e;stroke-width:20;stroke-linecap:butt;stroke-linejoin:miter;stroke-miterlimit:10;stroke-dasharray:none;stroke-opacity:1"
       id="path859" /><path
       d="M 3341.02,446 V 313"
       style="fill:none;stroke:#16161e;stroke-width:20;stroke-linecap:butt;stroke-linejoin:miter;stroke-miterlimit:10;stroke-dasharray:none;stroke-opacity:1"
       id="path861" /><path
       d="M 3575.8,446 V 313"
       style="fill:none;stroke:#16161e;stroke-width:20;stroke-linecap:butt;stroke-linejoin:miter;stroke-miterlimit:10;stroke-dasharray:none;stroke-opacity:1"
       id="path863" /><path
       d="M 3810.58,446 V 313"
       style="fill:none;stroke:#16161e;stroke-width:20;stroke-linecap:butt;stroke-linejoin:miter;stroke-miterlimit:10;stroke-dasharray:none;stroke-opacity:1"
       id="path865" /><path
       d="M 4045.37,446 V 313"
       style="fill:none;stroke:#16161e;stroke-width:20;stroke-linecap:butt;stroke-linejoin:miter;stroke-miterlimit:10;stroke-dasharray:none;stroke-opacity:1"
       id="path867" /><path
       d="m 18648.8,516.5 h 1537.9"
       style="fill:none;stroke:#16161e;stroke-width:20;stroke-linecap:butt;stroke-linejoin:miter;stroke-miterlimit:10;stroke-dasharray:none;stroke-opacity:1"
       id="path869" /><path
       d="M 18860.1,446 V 313"
       style="fill:none;stroke:#16161e;stroke-width:20;stroke-linecap:butt;stroke-linejoin:miter;stroke-miterlimit:10;stroke-dasharray:none;stroke-opacity:1"
       id="path871" /><path
       d="M 19094.9,446 V 313"
       style="fill:none;stroke:#16161e;stroke-width:20;stroke-linecap:butt;stroke-linejoin:miter;stroke-miterlimit:10;stroke-dasharray:none;stroke-opacity:1"
       id="path873" /><path
       d="M 19329.7,446 V 313"
       style="fill:none;stroke:#16161e;stroke-width:20;stroke-linecap:butt;stroke-linejoin:miter;stroke-miterlimit:10;stroke-dasharray:none;stroke-opacity:1"
       id="path875" /><path
       d="M 19564.5,446 V 313"
       style="fill:none;stroke:#16161e;stroke-width:20;stroke-linecap:butt;stroke-linejoin:miter;stroke-miterlimit:10;stroke-dasharray:none;stroke-opacity:1"
       id="path877" /><path
       d="M 19799.3,446 V 313"
       style="fill:none;stroke:#16161e;stroke-width:20;stroke-linecap:butt;stroke-linejoin:miter;stroke-miterlimit:10;stroke-dasharray:none;stroke-opacity:1"
       id="path879" /><path
       d="M 20034.1,446 V 313"
       style="fill:none;stroke:#16161e;stroke-width:20;stroke-linecap:butt;stroke-linejoin:miter;stroke-miterlimit:10;stroke-dasharray:none;stroke-opacity:1"
       id="path881" /></g></svg>
