<svg xmlns="http://www.w3.org/2000/svg" xmlns:xlink="http://www.w3.org/1999/xlink" viewBox="0 0 680 245" width="680" height="245" preserveAspectRatio="xMidYMid meet" style="width: 100%; height: 100%; transform: translate3d(0px, 0px, 0px); content-visibility: visible;"><defs><clipPath id="__lottie_element_794"><rect width="680" height="245" x="0" y="0"></rect></clipPath><clipPath id="__lottie_element_796"><path d="M0,0 L680,0 L680,245 L0,245z"></path></clipPath></defs><g clip-path="url(#__lottie_element_794)"><g clip-path="url(#__lottie_element_796)" style="display: block;" transform="matrix(1,0,0,1,0,0)" opacity="1"><g style="display: block;" transform="matrix(1,0,0,1,484.7200012207031,127.76700592041016)" opacity="1"><g opacity="1" transform="matrix(1,0,0,1,68.8489990234375,38.310001373291016)"><path fill="rgb(247,247,247)" fill-opacity="1" d=" M-63.8489990234375,32.44499969482422 C-63.8489990234375,32.44499969482422 -40.0359992980957,-31.277000427246094 -40.0359992980957,-31.277000427246094 C-40.0359992980957,-31.277000427246094 -39.72200012207031,-32.106998443603516 -39.39099884033203,-32.981998443603516 C-21.913000106811523,-33.31100082397461 -7.188000202178955,-21.677000045776367 -2.700000047683716,-5.815999984741211 C0.9829999804496765,-6.9039998054504395 4.889999866485596,-7.460000038146973 8.9350004196167,-7.395999908447266 C22.982999801635742,-7.171000003814697 35.17300033569336,0.4659999907016754 41.84199905395508,11.725000381469727 C43.020999908447266,13.715999603271484 45.17499923706055,14.871000289916992 47.48699951171875,14.902000427246094 C47.48699951171875,14.902000427246094 47.5260009765625,14.902000427246094 47.5260009765625,14.902000427246094 C56.104000091552734,15.039999961853027 62.7140007019043,21.768999099731445 63.8489990234375,30.05500030517578 C63.8489990234375,30.05500030517578 63.8489990234375,33.31100082397461 63.8489990234375,33.31100082397461 C63.8489990234375,33.31100082397461 -63.8489990234375,32.44499969482422 -63.8489990234375,32.44499969482422z"></path></g><g opacity="1" transform="matrix(1,0,0,1,68.8489990234375,37.87799835205078)"><path stroke-linecap="round" stroke-linejoin="round" fill-opacity="0" stroke="rgb(83,83,83)" stroke-opacity="1" stroke-width="2" d=" M63.849998474121094,30.48900032043457 C62.71500015258789,22.202999114990234 56.10200119018555,15.472000122070312 47.525001525878906,15.335000038146973 C47.525001525878906,15.335000038146973 47.486000061035156,15.335000038146973 47.486000061035156,15.335000038146973 C45.17300033569336,15.303000450134277 43.020999908447266,14.14799976348877 41.840999603271484,12.157999992370605 C35.172000885009766,0.8989999890327454 22.98200035095215,-6.73799991607666 8.934000015258789,-6.961999893188477 C4.888999938964844,-7.0269999504089355 0.9829999804496765,-6.46999979019165 -2.7009999752044678,-5.381999969482422 C-7.188000202178955,-21.243000030517578 -21.913999557495117,-32.87699890136719 -39.39099884033203,-32.54800033569336 C-39.722999572753906,-31.67300033569336 -40.03799819946289,-30.843000411987305 -40.03799819946289,-30.843000411987305 C-40.03799819946289,-30.843000411987305 -63.849998474121094,32.87799835205078 -63.849998474121094,32.87799835205078"></path></g></g><g style="display: block;" transform="matrix(0.9945219159126282,0.10452846437692642,-0.10452846437692642,0.9945219159126282,313.26806640625,149.80679321289062)" opacity="1"><g opacity="1" transform="matrix(1,0,0,1,10.54800033569336,7.552000045776367)"><path stroke-linecap="round" stroke-linejoin="round" fill-opacity="0" stroke="rgb(75,75,75)" stroke-opacity="1" stroke-width="2" d=" M-8.54800033569336,-5.551000118255615 C-8.357000350952148,-4.4629998207092285 -2.9079999923706055,5.410999774932861 8.54800033569336,5.551000118255615"></path></g></g><g style="display: block;" transform="matrix(1,0,0,1,324.3379821777344,71.62299346923828)" opacity="0.08"><g opacity="1" transform="matrix(1,0,0,1,90.73999786376953,65.16500091552734)"><path fill="rgb(83,83,83)" fill-opacity="1" d=" M50.54499816894531,-65.16100311279297 C31.23699951171875,-65.62300109863281 -24.437000274658203,-30.915000915527344 -37.77299880981445,-30.832000732421875 C-55.69599914550781,-30.719999313354492 -52.8849983215332,-29.60300064086914 -52.8849983215332,-29.60300064086914 C-52.8849983215332,-29.60300064086914 -84.92400360107422,-17.16200065612793 -84.92400360107422,-17.16200065612793 C-87.46900177001953,-15.118000030517578 -89.36299896240234,-12.37600040435791 -90.37300109863281,-9.270999908447266 C-90.37300109863281,-9.270999908447266 -90.73999786376953,-8.140000343322754 -90.73999786376953,-8.140000343322754 C-90.73999786376953,-8.140000343322754 -89.88099670410156,34.63399887084961 -89.88099670410156,34.63399887084961 C-89.88099670410156,34.63399887084961 -89.69999694824219,35.417999267578125 -89.69999694824219,35.417999267578125 C-88.76899719238281,39.4370002746582 -86.1760025024414,42.87099838256836 -82.56700134277344,44.86899948120117 C-81.61900329589844,56.696998596191406 -79.08000183105469,65.16500091552734 -76.09700012207031,65.16500091552734 C-75.30999755859375,65.16500091552734 -54.354000091552734,65.1520004272461 -54.354000091552734,65.1520004272461 C-54.354000091552734,65.1520004272461 -54.79499816894531,56.1510009765625 -55.04499816894531,46.119998931884766 C-55.04499816894531,46.119998931884766 31.54400062561035,46.45100021362305 31.54400062561035,46.45100021362305 C31.54400062561035,46.45100021362305 5.538000106811523,33.22100067138672 25.996999740600586,16.773000717163086 C30.267000198364258,16.565000534057617 47.04100036621094,16.538000106811523 52.92100143432617,15.46500015258789 C54.13100051879883,14.383999824523926 54.92499923706055,10.906000137329102 52.92100143432617,8.718999862670898 C55.84400177001953,4.460999965667725 65.40499877929688,-8.458999633789062 55.84400177001953,-13.682999610900879 C53.606998443603516,-23.520999908447266 77.12899780273438,-17.749000549316406 78.73899841308594,-22.118000030517578 C80.6240005493164,-23.51300048828125 87.23500061035156,-30.591999053955078 87.92500305175781,-31.052000045776367 C88.61499786376953,-31.511999130249023 90.73999786376953,-61.76300048828125 90.73999786376953,-61.76300048828125 C76.75800323486328,-62.48500061035156 63.196998596191406,-64.85800170898438 50.54499816894531,-65.16100311279297z"></path></g></g><g style="display: block;" transform="matrix(1,0,0,1,292.24200439453125,123.71699523925781)" opacity="1"><g opacity="0.05" transform="matrix(1,0,0,1,11.70199966430664,15.475000381469727)"><path fill="rgb(74,74,74)" fill-opacity="1" d=" M-9.178000450134277,-1.7339999675750732 C-10.23799991607666,3.878000020980835 -6.988999843597412,9.204000473022461 -1.9199999570846558,10.161999702453613 C3.1489999294281006,11.119000434875488 8.116999626159668,7.34499979019165 9.177000045776367,1.7330000400543213 C10.237000465393066,-3.880000114440918 6.98799991607666,-9.204999923706055 1.9190000295639038,-10.163000106811523 C-3.1500000953674316,-11.119999885559082 -8.118000030517578,-7.3460001945495605 -9.178000450134277,-1.7339999675750732z"></path></g><g opacity="1" transform="matrix(1,0,0,1,11.29699993133545,14.630000114440918)"><path fill="rgb(234,234,234)" fill-opacity="1" d=" M9.29800033569336,-0.0010000000474974513 C9.29800033569336,-6.9770002365112305 5.135000228881836,-12.630999565124512 0,-12.630999565124512 C-5.135000228881836,-12.630999565124512 -9.29800033569336,-6.9770002365112305 -9.29800033569336,-0.0010000000474974513 C-9.29800033569336,6.974999904632568 -5.135000228881836,12.630999565124512 0,12.630999565124512 C5.135000228881836,12.630999565124512 9.29800033569336,6.974999904632568 9.29800033569336,-0.0010000000474974513z"></path></g><g opacity="1" transform="matrix(1,0,0,1,12.01200008392334,14.576000213623047)"><path fill="rgb(223,223,223)" fill-opacity="1" d=" M7.433000087738037,0 C7.433000087738037,-5.576000213623047 4.105000019073486,-10.097999572753906 0,-10.097999572753906 C-4.105999946594238,-10.097999572753906 -7.433000087738037,-5.576000213623047 -7.433000087738037,0 C-7.433000087738037,5.577000141143799 -4.105999946594238,10.097999572753906 0,10.097999572753906 C4.105000019073486,10.097999572753906 7.433000087738037,5.577000141143799 7.433000087738037,0z"></path></g><g opacity="0.05" transform="matrix(1,0,0,1,15.909000396728516,19.9689998626709)"><path fill="rgb(83,83,83)" fill-opacity="1" d=" M7.561999797821045,5.191999912261963 C7.561999797821045,5.191999912261963 3.877000093460083,-1.3389999866485596 3.877000093460083,-1.3389999866485596 C4.88700008392334,-2.2699999809265137 5.535999774932861,-3.6630001068115234 5.535999774932861,-5.23199987411499 C5.535999774932861,-7.75600004196167 3.871999979019165,-9.843999862670898 1.6929999589920044,-10.239999771118164 C1.6510000228881836,-10.251999855041504 -3.9179999828338623,-10.251999855041504 -3.9600000381469727,-10.239999771118164 C-6.138999938964844,-9.843999862670898 -7.802000045776367,-7.75600004196167 -7.802000045776367,-5.23199987411499 C-7.802000045776367,-2.6410000324249268 -5.890999794006348,-1.1100000143051147 -5.890999794006348,-1.1100000143051147 C-5.890999794006348,-1.1100000143051147 0.29600000381469727,8.918999671936035 0.29600000381469727,8.918999671936035 C1.034999966621399,10.354000091552734 3.253999948501587,10.67300033569336 5.26200008392334,9.652000427246094 C7.270999908447266,8.630000114440918 8.302000045776367,6.63100004196167 7.561999797821045,5.191999912261963z"></path></g><g opacity="1" transform="matrix(1,0,0,1,11.29699993133545,14.630999565124512)"><path stroke-linecap="round" stroke-linejoin="round" fill-opacity="0" stroke="rgb(75,75,75)" stroke-opacity="1" stroke-width="2" d=" M7.504000186920166,-7.460999965667725 C5.811999797821045,-10.595999717712402 3.0810000896453857,-12.630999565124512 0.0010000000474974513,-12.630999565124512 C-5.133999824523926,-12.630999565124512 -9.29800033569336,-6.9770002365112305 -9.29800033569336,-0.0010000000474974513 C-9.29800033569336,6.974999904632568 -5.133999824523926,12.630999565124512 0.0010000000474974513,12.630999565124512 C5.136000156402588,12.630999565124512 9.29800033569336,6.974999904632568 9.29800033569336,-0.0010000000474974513"></path></g><g opacity="1" transform="matrix(1,0,0,1,19.26300048828125,19.847999572753906)"><path fill="rgb(246,246,246)" fill-opacity="1" d=" M-2.0160000324249268,-9.151000022888184 C-2.0160000324249268,-9.151000022888184 5.216000080108643,3.6689999103546143 5.216000080108643,3.6689999103546143 C5.955999851226807,5.109000205993652 4.925000190734863,7.10699987411499 2.9170000553131104,8.128999710083008 C0.9079999923706055,9.151000022888184 -1.312000036239624,8.831000328063965 -2.0510001182556152,7.395999908447266 C-2.0510001182556152,7.395999908447266 -5.955999851226807,0.41100001335144043 -5.955999851226807,0.41100001335144043 C-5.955999851226807,0.41100001335144043 -2.0160000324249268,-9.151000022888184 -2.0160000324249268,-9.151000022888184z"></path></g><g opacity="1" transform="matrix(1,0,0,1,19.573999404907227,19.847999572753906)"><path stroke-linecap="round" stroke-linejoin="round" fill-opacity="0" stroke="rgb(75,75,75)" stroke-opacity="1" stroke-width="2" d=" M-5.644000053405762,-1.524999976158142 C-5.644000053405762,-1.524999976158142 -2.3269999027252197,-9.151000022888184 -2.3269999027252197,-9.151000022888184 C-2.3269999027252197,-9.151000022888184 4.9039998054504395,3.6689999103546143 4.9039998054504395,3.6689999103546143 C5.644000053405762,5.109000205993652 4.613999843597412,7.10699987411499 2.6059999465942383,8.128999710083008 C0.597000002861023,9.151000022888184 -1.621999979019165,8.831000328063965 -2.3610000610351562,7.395999908447266 C-2.3610000610351562,7.395999908447266 -4.4019999504089355,3.6649999618530273 -4.4019999504089355,3.6649999618530273"></path></g><g opacity="0.05" transform="matrix(1,0,0,1,19.9689998626709,22.660999298095703)"><path fill="rgb(74,74,74)" fill-opacity="1" d=" M-3.990000009536743,-3.4860000610351562 C-0.7580000162124634,-3.88100004196167 -0.36399999260902405,-1.5460000038146973 1.6690000295639038,1.3869999647140503 C2.378000020980835,3.134000062942505 -0.5199999809265137,5.459000110626221 -3.1760001182556152,5.089000225067139 C-3.7690000534057617,5.203999996185303 -3.0169999599456787,6.432000160217285 -1.1629999876022339,6.166999816894531 C-1.1629999876022339,6.166999816894531 4.40500020980835,5.5289998054504395 3.9649999141693115,1.2289999723434448 C3.9649999141693115,1.2289999723434448 -0.36500000953674316,-6.203999996185303 -0.36500000953674316,-6.203999996185303 C-0.36500000953674316,-6.203999996185303 -1.2910000085830688,-3.2960000038146973 -3.5,-3.318000078201294"></path></g><g opacity="1" transform="matrix(1,0,0,1,23.0939998626709,27.775999069213867)"><path fill="rgb(74,74,74)" fill-opacity="1" d=" M-1.1160000562667847,1.1990000009536743 C-1.1160000562667847,1.1990000009536743 -1.187999963760376,1.0980000495910645 -1.187999963760376,1.0980000495910645 C1.2699999809265137,0.6110000014305115 1.1859999895095825,-1.1990000009536743 1.1859999895095825,-1.1990000009536743"></path></g><g opacity="1" transform="matrix(1,0,0,1,14.776000022888184,14.744999885559082)"><path fill="rgb(255,255,255)" fill-opacity="1" d=" M6.669000148773193,-0.00800000037997961 C6.669000148773193,-2.5320000648498535 5.005000114440918,-4.619999885559082 2.8269999027252197,-5.015999794006348 C2.7839999198913574,-5.0289998054504395 -2.7839999198913574,-5.0289998054504395 -2.8269999027252197,-5.015999794006348 C-5.005000114440918,-4.619999885559082 -6.669000148773193,-2.5320000648498535 -6.669000148773193,-0.00800000037997961 C-6.669000148773193,2.5829999446868896 -4.915999889373779,4.716000080108643 -2.6530001163482666,5.0289998054504395 C-2.6530001163482666,5.0289998054504395 2.6540000438690186,5.0289998054504395 2.6540000438690186,5.0289998054504395 C4.916999816894531,4.716000080108643 6.669000148773193,2.5829999446868896 6.669000148773193,-0.00800000037997961z"></path></g><g opacity="1" transform="matrix(1,0,0,1,14.776000022888184,14.744999885559082)"><path stroke-linecap="round" stroke-linejoin="round" fill-opacity="0" stroke="rgb(75,75,75)" stroke-opacity="1" stroke-width="2" d=" M6.669000148773193,-0.00800000037997961 C6.669000148773193,-2.5320000648498535 5.005000114440918,-4.619999885559082 2.8269999027252197,-5.015999794006348 C2.7839999198913574,-5.0289998054504395 -2.7839999198913574,-5.0289998054504395 -2.8269999027252197,-5.015999794006348 C-5.005000114440918,-4.619999885559082 -6.669000148773193,-2.5320000648498535 -6.669000148773193,-0.00800000037997961 C-6.669000148773193,2.5829999446868896 -4.915999889373779,4.716000080108643 -2.6530001163482666,5.0289998054504395 C-2.6530001163482666,5.0289998054504395 2.6540000438690186,5.0289998054504395 2.6540000438690186,5.0289998054504395 C4.916999816894531,4.716000080108643 6.669000148773193,2.5829999446868896 6.669000148773193,-0.00800000037997961z"></path></g><g opacity="0.05" transform="matrix(1,0,0,1,16.600000381469727,14.678999900817871)"><path fill="rgb(74,74,74)" fill-opacity="1" d=" M-4.89900016784668,-4.894000053405762 C-4.89900016784668,-4.894000053405762 3.242000102996826,-3.6449999809265137 2.4119999408721924,0.7950000166893005 C2.4119999408721924,0.7950000166893005 2.1029999256134033,4.809000015258789 -3.494999885559082,4.76200008392334 C-3.494999885559082,4.76200008392334 1.4470000267028809,4.956999778747559 1.4470000267028809,4.956999778747559 C1.4470000267028809,4.956999778747559 5.4029998779296875,4.627999782562256 4.843999862670898,-1.4249999523162842 C4.843999862670898,-1.4249999523162842 3.8259999752044678,-4.7129998207092285 0,-4.956999778747559 C0,-4.956999778747559 -4.89900016784668,-4.894000053405762 -4.89900016784668,-4.894000053405762z"></path></g></g><g style="display: block;" transform="matrix(1,0,0,1,333.947998046875,131.43800354003906)" opacity="1"><g opacity="1" transform="matrix(1,0,0,1,19.30699920654297,36.44599914550781)"><path fill="rgb(224,224,224)" fill-opacity="1" d=" M-14.307000160217285,0.8650000095367432 C-14.307000160217285,17.7549991607666 -11.230999946594238,31.445999145507812 -7.436999797821045,31.445999145507812 C-6.651000022888184,31.445999145507812 14.307000160217285,31.433000564575195 14.307000160217285,31.433000564575195 C14.307000160217285,31.433000564575195 13.449000358581543,13.9350004196167 13.449000358581543,0.5479999780654907 C13.449000358581543,-12.425999641418457 14.227999687194824,-31.445999145507812 14.227999687194824,-31.445999145507812 C14.227999687194824,-31.445999145507812 -6.557000160217285,-31.44499969482422 -7.436999797821045,-31.44499969482422 C-11.230999946594238,-31.44499969482422 -14.307000160217285,-16.024999618530273 -14.307000160217285,0.8650000095367432z"></path></g><g opacity="1" transform="matrix(1,0,0,1,33.345001220703125,36.44599914550781)"><path fill="rgb(230,230,230)" fill-opacity="1" d=" M-6.86899995803833,0.8650000095367432 C-6.86899995803833,17.7549991607666 -3.7929999828338623,31.44499969482422 0.0010000000474974513,31.44499969482422 C3.7950000762939453,31.44499969482422 6.86899995803833,17.7549991607666 6.86899995803833,0.8650000095367432 C6.86899995803833,-16.024999618530273 3.7950000762939453,-31.44499969482422 0.0010000000474974513,-31.44499969482422 C-3.7929999828338623,-31.44499969482422 -6.86899995803833,-16.024999618530273 -6.86899995803833,0.8650000095367432z"></path></g><g opacity="1" transform="matrix(1,0,0,1,33.345001220703125,36.44599914550781)"><path stroke-linecap="round" stroke-linejoin="round" fill-opacity="0" stroke="rgb(83,83,83)" stroke-opacity="1" stroke-width="2" d=" M6.869999885559082,0.8650000095367432 C6.869999885559082,-16.024999618530273 3.7929999828338623,-31.44499969482422 -0.0010000000474974513,-31.44499969482422 C-3.7950000762939453,-31.44499969482422 -6.869999885559082,-16.024999618530273 -6.869999885559082,0.8650000095367432 C-6.869999885559082,17.7549991607666 -3.7950000762939453,31.44499969482422 -0.0010000000474974513,31.44499969482422 C1.777999997138977,31.44499969482422 3.3980000019073486,28.43600082397461 4.618000030517578,23.500999450683594 C5.317999839782715,20.67099952697754 5.708000183105469,17.77400016784668 5.874000072479248,14.864999771118164 C5.874000072479248,14.864999771118164 5.890999794006348,14.555000305175781 5.890999794006348,14.555000305175781"></path></g><g opacity="1" transform="matrix(1,0,0,1,19.30699920654297,36.44599914550781)"><path stroke-linecap="round" stroke-linejoin="round" fill-opacity="0" stroke="rgb(83,83,83)" stroke-opacity="1" stroke-width="2" d=" M14.227999687194824,-31.445999145507812 C14.227999687194824,-31.445999145507812 -6.558000087738037,-31.44499969482422 -7.436999797821045,-31.44499969482422 C-11.230999946594238,-31.44499969482422 -14.307000160217285,-16.024999618530273 -14.307000160217285,0.8650000095367432 C-14.307000160217285,17.753999710083008 -11.230999946594238,31.445999145507812 -7.436999797821045,31.445999145507812 C-6.651000022888184,31.445999145507812 14.307000160217285,31.433000564575195 14.307000160217285,31.433000564575195"></path></g><g opacity="0.05" transform="matrix(1,0,0,1,22.898000717163086,58.11199951171875)"><path fill="rgb(83,83,83)" fill-opacity="1" d=" M-15.701000213623047,-1.1039999723434448 C-15.701000213623047,-1.1039999723434448 -5.308000087738037,-1.4190000295639038 -5.308000087738037,-1.4190000295639038 C-3.2690000534057617,-1.4819999933242798 -1.4190000295639038,-0.22599999606609344 -0.7440000176429749,1.6959999799728394 C0.004000000189989805,3.8310000896453857 1.1729999780654907,8.28600025177002 2.371999979019165,9.770999908447266 C2.371999979019165,9.770999908447266 8.859000205993652,9.253999710083008 8.859000205993652,9.253999710083008 C8.859000205993652,9.253999710083008 12.930999755859375,10.932000160217285 12.744999885559082,8.020000457763672 C12.642999649047852,7.632999897003174 16.4689998626709,-2.5739998817443848 16.375999450683594,-2.9609999656677246 C15.8100004196167,-5.322000026702881 17.60700035095215,-7.776000022888184 17.60700035095215,-9.772000312805176 C17.60700035095215,-9.772000312805176 -17.60700035095215,-9.348999977111816 -17.60700035095215,-9.348999977111816 C-17.60700035095215,-9.348999977111816 -15.701000213623047,-1.1039999723434448 -15.701000213623047,-1.1039999723434448z"></path></g><g opacity="1" transform="matrix(1,0,0,1,92.51899719238281,36.44499969482422)"><path fill="rgb(224,224,224)" fill-opacity="1" d=" M-14.307000160217285,0.8650000095367432 C-14.307000160217285,17.7549991607666 -11.230999946594238,31.44499969482422 -7.436999797821045,31.44499969482422 C-6.651000022888184,31.44499969482422 14.307000160217285,31.43199920654297 14.307000160217285,31.43199920654297 C14.307000160217285,31.43199920654297 13.449000358581543,13.9350004196167 13.449000358581543,0.5479999780654907 C13.449000358581543,-12.425000190734863 14.227999687194824,-31.44499969482422 14.227999687194824,-31.44499969482422 C14.227999687194824,-31.44499969482422 -6.558000087738037,-29.71500015258789 -7.436999797821045,-29.71500015258789 C-11.230999946594238,-29.71500015258789 -14.307000160217285,-16.02400016784668 -14.307000160217285,0.8650000095367432z"></path></g><g opacity="1" transform="matrix(1,0,0,1,106.55599975585938,36.44599914550781)"><path fill="rgb(230,230,230)" fill-opacity="1" d=" M-5.870999813079834,16.749000549316406 C-4.664999961853027,25.56100082397461 -2.486999988555908,31.44499969482422 0,31.44499969482422 C3.7939999103546143,31.44499969482422 6.869999885559082,17.753999710083008 6.869999885559082,0.8640000224113464 C6.869999885559082,-16.02400016784668 3.7939999103546143,-31.44499969482422 0,-31.44499969482422 C-3.7939999103546143,-31.44499969482422 -6.869999885559082,-16.02400016784668 -6.869999885559082,0.8640000224113464 C-6.869999885559082,6.682000160217285 -6.505000114440918,12.119000434875488 -5.870999813079834,16.749000549316406z"></path></g><g opacity="1" transform="matrix(1,0,0,1,106.55599975585938,36.44599914550781)"><path stroke-linecap="round" stroke-linejoin="round" fill-opacity="0" stroke="rgb(83,83,83)" stroke-opacity="1" stroke-width="2" d=" M-5.755000114440918,17.56399917602539 C-4.5289998054504395,25.92099952697754 -2.4100000858306885,31.44499969482422 0,31.44499969482422 C3.7939999103546143,31.44499969482422 6.869999885559082,17.753000259399414 6.869999885559082,0.8640000224113464 C6.869999885559082,-16.024999618530273 3.7939999103546143,-31.44499969482422 0,-31.44499969482422 C-3.7939999103546143,-31.44499969482422 -6.869999885559082,-16.024999618530273 -6.869999885559082,0.8640000224113464 C-6.869999885559082,2.7660000324249268 -6.829999923706055,4.625999927520752 -6.755000114440918,6.432000160217285"></path></g><g opacity="1" transform="matrix(1,0,0,1,92.47899627685547,36.45100021362305)"><path stroke-linecap="round" stroke-linejoin="round" fill-opacity="0" stroke="rgb(83,83,83)" stroke-opacity="1" stroke-width="2" d=" M14.267999649047852,-31.45199966430664 C14.267999649047852,-31.45199966430664 -6.519000053405762,-29.722999572753906 -7.39900016784668,-29.722999572753906 C-11.192000389099121,-29.722999572753906 -14.267999649047852,-16.030000686645508 -14.267999649047852,0.859000027179718 C-14.267999649047852,17.74799919128418 -11.192000389099121,31.43899917602539 -7.39900016784668,31.43899917602539 C-6.611999988555908,31.43899917602539 12.022000312805176,31.45199966430664 12.022000312805176,31.45199966430664"></path></g><g opacity="0.05" transform="matrix(1,0,0,1,95.26200103759766,58.4010009765625)"><path fill="rgb(83,83,83)" fill-opacity="1" d=" M-15.701000213623047,-1.3940000534057617 C-15.701000213623047,-1.3940000534057617 -5.308000087738037,-1.7089999914169312 -5.308000087738037,-1.7089999914169312 C-3.2690000534057617,-1.7710000276565552 -1.4190000295639038,-0.515999972820282 -0.7440000176429749,1.406999945640564 C0.004000000189989805,3.5409998893737793 1.0959999561309814,6.210000038146973 2.2950000762939453,7.696000099182129 C2.2950000762939453,7.696000099182129 8.859000205993652,8.96399974822998 8.859000205993652,8.96399974822998 C8.859000205993652,8.96399974822998 12.40999984741211,11.430000305175781 13.387999534606934,8.96399974822998 C13.286999702453613,8.57800006866455 16.4689998626709,-2.86299991607666 16.375999450683594,-3.250999927520752 C15.8100004196167,-5.611000061035156 17.60700035095215,-8.065999984741211 17.60700035095215,-10.060999870300293 C17.60700035095215,-10.060999870300293 -17.60700035095215,-9.637999534606934 -17.60700035095215,-9.637999534606934 C-17.60700035095215,-9.637999534606934 -15.701000213623047,-1.3940000534057617 -15.701000213623047,-1.3940000534057617z"></path></g><g opacity="1" transform="matrix(1,0,0,1,163.1739959716797,37.3120002746582)"><path fill="rgb(224,224,224)" fill-opacity="1" d=" M-17.791000366210938,0.0010000000474974513 C-17.791000366210938,16.889999389648438 -13.965999603271484,30.582000732421875 -9.248000144958496,30.582000732421875 C-8.270000457763672,30.582000732421875 17.791000366210938,30.56800079345703 17.791000366210938,30.56800079345703 C17.791000366210938,30.56800079345703 16.72599983215332,13.071000099182129 16.72599983215332,-0.3160000145435333 C16.72599983215332,-13.289999961853027 17.69499969482422,-30.582000732421875 17.69499969482422,-30.582000732421875 C17.69499969482422,-30.582000732421875 -8.154000282287598,-30.579999923706055 -9.248000144958496,-30.579999923706055 C-13.965999603271484,-30.579999923706055 -17.791000366210938,-16.888999938964844 -17.791000366210938,0.0010000000474974513z"></path></g><g opacity="1" transform="matrix(1,0,0,1,163.33200073242188,37.3120002746582)"><path stroke-linecap="round" stroke-linejoin="round" fill-opacity="0" stroke="rgb(83,83,83)" stroke-opacity="1" stroke-width="2" d=" M15.536999702453613,-30.582000732421875 C15.536999702453613,-30.582000732421875 -8.081999778747559,-30.579999923706055 -9.166000366210938,-30.579999923706055 C-13.842000007629395,-30.579999923706055 -17.632999420166016,-16.888999938964844 -17.632999420166016,0.0010000000474974513 C-17.632999420166016,16.889999389648438 -13.842000007629395,30.582000732421875 -9.166000366210938,30.582000732421875 C-8.196000099182129,30.582000732421875 17.632999420166016,30.56800079345703 17.632999420166016,30.56800079345703"></path></g><g opacity="1" transform="matrix(1,0,0,1,210.94200134277344,40.08300018310547)"><path fill="rgb(224,224,224)" fill-opacity="1" d=" M-14.220999717712402,0.0010000000474974513 C-14.220999717712402,15.359999656677246 -11.164999961853027,27.812000274658203 -7.39300012588501,27.812000274658203 C-6.611000061035156,27.812000274658203 14.220999717712402,27.798999786376953 14.220999717712402,27.798999786376953 C14.220999717712402,27.798999786376953 13.369000434875488,11.88700008392334 13.369000434875488,-0.2879999876022339 C13.369000434875488,-12.086000442504883 14.142999649047852,-27.812000274658203 14.142999649047852,-27.812000274658203 C14.142999649047852,-27.812000274658203 -6.519000053405762,-27.812000274658203 -7.39300012588501,-27.812000274658203 C-11.164999961853027,-27.812000274658203 -14.220999717712402,-15.357999801635742 -14.220999717712402,0.0010000000474974513z"></path></g><g opacity="1" transform="matrix(1,0,0,1,210.9669952392578,61.48899841308594)"><path stroke-linecap="round" stroke-linejoin="round" fill-opacity="0" stroke="rgb(83,83,83)" stroke-opacity="1" stroke-width="2" d=" M-13.390999794006348,-6.406000137329102 C-12.20300006866455,1.2990000247955322 -10.12600040435791,6.406000137329102 -7.763000011444092,6.406000137329102 C-6.997000217437744,6.406000137329102 13.390999794006348,6.39300012588501 13.390999794006348,6.39300012588501"></path></g><g opacity="1" transform="matrix(1,0,0,1,222.6929931640625,39.520999908447266)"><path fill="rgb(230,230,230)" fill-opacity="1" d=" M-7.666999816894531,0 C-7.666999816894531,15.359000205993652 -4.234000205993652,27.81100082397461 0,27.81100082397461 C4.235000133514404,27.81100082397461 7.666999816894531,15.359000205993652 7.666999816894531,0 C7.666999816894531,-15.359000205993652 4.235000133514404,-27.81100082397461 0,-27.81100082397461 C-4.234000205993652,-27.81100082397461 -7.666999816894531,-15.359000205993652 -7.666999816894531,0z"></path></g><g opacity="0.05" transform="matrix(1,0,0,1,223.30099487304688,40.28300094604492)"><path fill="rgb(83,83,83)" fill-opacity="1" d=" M-3.611999988555908,0 C-3.611999988555908,10.208000183105469 -1.996000051498413,18.482999801635742 0,18.482999801635742 C1.9950000047683716,18.482999801635742 3.611999988555908,10.208000183105469 3.611999988555908,0 C3.611999988555908,-10.208000183105469 1.9950000047683716,-18.482999801635742 0,-18.482999801635742 C-1.996000051498413,-18.482999801635742 -3.611999988555908,-10.208000183105469 -3.611999988555908,0z"></path></g><g opacity="1" transform="matrix(1,0,0,1,222.6929931640625,40.08300018310547)"><path stroke-linecap="round" stroke-linejoin="round" fill-opacity="0" stroke="rgb(83,83,83)" stroke-opacity="1" stroke-width="2" d=" M-7.511000156402588,-5.605000019073486 C-7.61299991607666,-3.7939999103546143 -7.666999816894531,-1.9199999570846558 -7.666999816894531,-0.0010000000474974513 C-7.666999816894531,15.359000205993652 -4.235000133514404,27.81100082397461 0,27.81100082397461 C4.235000133514404,27.81100082397461 7.666999816894531,15.359000205993652 7.666999816894531,-0.0010000000474974513 C7.666999816894531,-15.359999656677246 4.235000133514404,-27.81100082397461 0,-27.81100082397461 C-3.7060000896453857,-27.81100082397461 -6.796000003814697,-18.277999877929688 -7.511000156402588,-5.605000019073486z"></path></g><g opacity="1" transform="matrix(1,0,0,1,178.51100158691406,37.3120002746582)"><path fill="rgb(230,230,230)" fill-opacity="1" d=" M-9.055000305175781,0.0010000000474974513 C-9.055000305175781,16.889999389648438 -5.000999927520752,30.58099937438965 0,30.58099937438965 C5.001999855041504,30.58099937438965 9.055000305175781,16.889999389648438 9.055000305175781,0.0010000000474974513 C9.055000305175781,-16.888999938964844 5.001999855041504,-30.58099937438965 0,-30.58099937438965 C-5.000999927520752,-30.58099937438965 -9.055000305175781,-16.888999938964844 -9.055000305175781,0.0010000000474974513z"></path></g><g opacity="1" transform="matrix(1,0,0,1,176.51499938964844,31.777000427246094)"><path stroke-linecap="round" stroke-linejoin="round" fill-opacity="0" stroke="rgb(83,83,83)" stroke-opacity="1" stroke-width="2" d=" M7.059000015258789,-19.815000534057617 C5.613999843597412,-23.118000030517578 3.871000051498413,-25.045000076293945 1.996000051498413,-25.045000076293945 C-3.005000114440918,-25.045000076293945 -7.059000015258789,-11.333000183105469 -7.059000015258789,5.581999778747559 C-7.059000015258789,12.973999977111816 -6.284999847412109,19.753000259399414 -4.995999813079834,25.045000076293945"></path></g><g opacity="1" transform="matrix(1,0,0,1,175.64599609375,64.44300079345703)"><path stroke-linecap="round" stroke-linejoin="round" fill-opacity="0" stroke="rgb(83,83,83)" stroke-opacity="1" stroke-width="2" d=" M-2.865000009536743,-3.4489998817443848 C-1.3040000200271606,0.8629999756813049 0.6909999847412109,3.4489998817443848 2.865000009536743,3.4489998817443848"></path></g><g opacity="1" transform="matrix(1,0,0,1,178.7480010986328,37.03900146484375)"><path fill="rgb(83,83,83)" fill-opacity="0.05" d=" M-3.7170000076293945,0.0010000000474974513 C-3.7170000076293945,11.270999908447266 -2.052999973297119,20.4060001373291 0,20.4060001373291 C2.053999900817871,20.4060001373291 3.7179999351501465,11.270999908447266 3.7179999351501465,0.0010000000474974513 C3.7179999351501465,-11.270000457763672 2.053999900817871,-20.406999588012695 0,-20.406999588012695 C-2.052999973297119,-20.406999588012695 -3.7170000076293945,-11.270000457763672 -3.7170000076293945,0.0010000000474974513z"></path></g><g opacity="1" transform="matrix(1,0,0,1,160.73899841308594,58.2869987487793)"><path fill="rgb(83,83,83)" fill-opacity="0.05" d=" M-12.87399959564209,-0.8460000157356262 C-12.87399959564209,-0.8460000157356262 -1.0609999895095825,-1.1610000133514404 -1.0609999895095825,-1.1610000133514404 C1.25600004196167,-1.2230000495910645 3.3589999675750732,0.032999999821186066 4.125999927520752,1.9559999704360962 C4.9770002365112305,4.090000152587891 6.2179999351501465,6.757999897003174 7.580999851226807,8.244000434875488 C7.580999851226807,8.244000434875488 15.041000366210938,9.51200008392334 15.041000366210938,9.51200008392334 C15.041000366210938,9.51200008392334 9.265000343322754,-2.3239998817443848 9.265000343322754,-9.51200008392334 C9.265000343322754,-9.51200008392334 -15.039999961853027,-9.08899974822998 -15.039999961853027,-9.08899974822998 C-15.039999961853027,-9.08899974822998 -12.87399959564209,-0.8460000157356262 -12.87399959564209,-0.8460000157356262z"></path></g><g opacity="1" transform="matrix(1,0,0,1,208.75399780273438,59.15700149536133)"><path fill="rgb(83,83,83)" fill-opacity="0.05" d=" M-10.300999641418457,-0.7689999938011169 C-10.300999641418457,-0.7689999938011169 -0.8500000238418579,-1.055999994277954 -0.8500000238418579,-1.055999994277954 C1.0049999952316284,-1.1130000352859497 2.687999963760376,0.028999999165534973 3.3010001182556152,1.777999997138977 C3.9820001125335693,3.7179999351501465 4.974999904632568,6.146999835968018 6.065000057220459,7.498000144958496 C6.065000057220459,7.498000144958496 12.034000396728516,8.651000022888184 12.034000396728516,8.651000022888184 C12.034000396728516,8.651000022888184 7.413000106811523,-2.115000009536743 7.413000106811523,-8.652000427246094 C7.413000106811523,-8.652000427246094 -12.034000396728516,-8.267000198364258 -12.034000396728516,-8.267000198364258 C-12.034000396728516,-8.267000198364258 -10.300999641418457,-0.7689999938011169 -10.300999641418457,-0.7689999938011169z"></path></g></g><g style="display: block;" id="svg-car" transform="matrix(1,0,0,1,324.72698974609375,64.02099609375)" opacity="1"><g opacity="1" transform="matrix(1,0,0,1,44.233001708984375,44.75299835205078)"><path fill="rgb(247,247,247)" fill-opacity="1" d=" M8.369000434875488,9.366000175476074 C8.369000434875488,9.366000175476074 5.190999984741211,6.196000099182129 5.190999984741211,6.196000099182129 C4.6570000648498535,5.664999961853027 3.9719998836517334,5.427999973297119 3.3239998817443848,5.560999870300293 C1.1160000562667847,6.01200008392334 -4.177000045776367,6.947999954223633 -7.133999824523926,6.23199987411499 C-10.935999870300293,5.313000202178955 -13.541000366210938,1.7769999504089355 -13.213000297546387,-1.2339999675750732 C-12.784000396728516,-5.164999961853027 -8.432000160217285,-8.942999839782715 -0.49399998784065247,-9.366000175476074 C3.821000099182129,-9.230999946594238 9.437000274658203,-2.328000068664551 13.541000366210938,1.777999997138977"></path></g><g opacity="1" transform="matrix(1,0,0,1,44.16899871826172,44.68600082397461)"><path stroke-linecap="round" stroke-linejoin="round" fill-opacity="0" stroke="rgb(83,83,83)" stroke-opacity="1" stroke-width="2" d=" M8.434000015258789,9.432999610900879 C8.434000015258789,9.432999610900879 5.255000114440918,6.263000011444092 5.255000114440918,6.263000011444092 C4.7210001945495605,5.73199987411499 4.035999774932861,5.494999885559082 3.388000011444092,5.627999782562256 C1.1799999475479126,6.078999996185303 -4.11299991607666,7.014999866485596 -7.070000171661377,6.298999786376953 C-10.871999740600586,5.380000114440918 -13.47599983215332,1.843999981880188 -13.14799976348877,-1.1670000553131104 C-12.770999908447266,-4.625 -9.361000061035156,-7.9629998207092285 -3.1459999084472656,-9.005000114440918 C-0.597000002861023,-9.432999610900879 2.0360000133514404,-8.89900016784668 4.171000003814697,-7.440999984741211 C7.381999969482422,-5.249000072479248 10.737000465393066,-1.5570000410079956 13.47700023651123,1.184000015258789"></path></g><g opacity="1" transform="matrix(1,0,0,1,124.7509994506836,61.84299850463867)"><path fill="rgb(229,229,229)" fill-opacity="1" d=" M114.12100219726562,10.812000274658203 C114.12100219726562,10.812000274658203 110.80400085449219,-2.3420000076293945 108.7229995727539,-5.489999771118164 C107.58699798583984,-7.208000183105469 106.18599700927734,-10.145000457763672 104.8280029296875,-11.694000244140625 C101.2509994506836,-17.697999954223633 98.5199966430664,-27.125 94.18699645996094,-32.33599853515625 C89.01599884033203,-38.196998596191406 83.87799835205078,-49.314998626708984 59.715999603271484,-51.117000579833984 C19.916000366210938,-56.84299850463867 -31.232999801635742,-48.71500015258789 -41.3489990234375,-46.999000549316406 C-51.465999603271484,-45.279998779296875 -53.57400131225586,-39.17100143432617 -53.57400131225586,-39.17100143432617 C-53.57400131225586,-39.17100143432617 -80.4489974975586,-18.95800018310547 -80.4489974975586,-18.95800018310547 C-80.4489974975586,-18.95800018310547 -90.53099822998047,-16.80299949645996 -95.15799713134766,-14.881999969482422 C-101.50199890136719,-12.24899959564209 -106.25299835205078,-6 -106.25299835205078,-6 C-106.25299835205078,-6 -109.09200286865234,-4.854000091552734 -109.09200286865234,-4.854000091552734 C-110.0989990234375,-4.447999954223633 -110.81500244140625,-3.5380001068115234 -110.97200012207031,-2.4619998931884766 C-110.97200012207031,-2.4619998931884766 -112.19000244140625,5.875 -112.19000244140625,5.875 C-112.19000244140625,5.875 -118.30500030517578,11.460000038146973 -118.30500030517578,11.460000038146973 C-118.30500030517578,11.460000038146973 -117.66600036621094,41.94900131225586 -117.66600036621094,41.94900131225586 C-117.66600036621094,41.94900131225586 -114.96700286865234,51.94200134277344 -114.96700286865234,51.94200134277344 C-114.96700286865234,51.94200134277344 -106.55400085449219,56.638999938964844 -106.55400085449219,56.638999938964844 C-106.55400085449219,56.638999938964844 54.59700012207031,56.79800033569336 54.59700012207031,56.79800033569336 C54.16400146484375,53.22999954223633 53.92399978637695,49.32600021362305 53.92399978637695,45.231998443603516 C53.92399978637695,28.341999053955078 57.97800064086914,14.651000022888184 62.97999954223633,14.651000022888184 C67.98100280761719,14.651000022888184 72.03500366210938,28.341999053955078 72.03500366210938,45.231998443603516 C72.03500366210938,49.33300018310547 71.79399871826172,53.242000579833984 71.36100006103516,56.816001892089844 C71.36100006103516,56.816001892089844 99.94499969482422,56.84299850463867 99.94499969482422,56.84299850463867 C99.65399932861328,53.90599822998047 99.49400329589844,50.74100112915039 99.49400329589844,47.439998626708984 C99.49400329589844,32.08100128173828 102.927001953125,19.628999710083008 107.16200256347656,19.628999710083008 C110.04399871826172,19.628999710083008 112.55400085449219,25.399999618530273 113.86299896240234,33.926998138427734 C113.86299896240234,33.926998138427734 115.29199981689453,31.395999908447266 115.29199981689453,31.395999908447266 C118.30500030517578,24.28700065612793 114.12100219726562,10.812000274658203 114.12100219726562,10.812000274658203z"></path></g><g opacity="1" transform="matrix(1,0,0,1,206.07200622558594,33.832000732421875)"><path fill="rgb(255,255,255)" fill-opacity="1" d=" M-11.123000144958496,-20.95599937438965 C-11.123000144958496,-20.95599937438965 -15.687000274658203,-23.707000732421875 -17.857999801635742,-22.733999252319336 C-19.072999954223633,-22.190000534057617 -18.371999740600586,-19.283000946044922 -18.525999069213867,-16.975000381469727 C-18.954999923706055,-10.541000366210938 -20.67799949645996,8.229999542236328 -20.67799949645996,8.229999542236328 C-20.67799949645996,8.229999542236328 2.61299991607666,23.70800018310547 14.04699993133545,15.145000457763672 C16.530000686645508,14.29800033569336 18.458999633789062,13.38700008392334 20.67799949645996,10.70199966430664 C19.43199920654297,6.940000057220459 18.655000686645508,5.090000152587891 18.655000686645508,5.090000152587891 C18.655000686645508,5.090000152587891 13.062999725341797,-10.819999694824219 -11.123000144958496,-20.95599937438965z"></path></g><g opacity="1" transform="matrix(1,0,0,1,97.18800354003906,62.88100051879883)"><path fill="rgb(246,246,246)" fill-opacity="1" d=" M90.74099731445312,-52.15599822998047 C90.74099731445312,-52.15599822998047 88.61599731445312,-21.90399932861328 87.9260025024414,-21.444000244140625 C87.23600006103516,-20.983999252319336 80.625,-13.904999732971191 78.73999786376953,-12.510000228881836 C77.86499786376953,-10.13700008392334 70.52300262451172,-10.758000373840332 64.35800170898438,-10.241999626159668 C59.680999755859375,-9.850000381469727 57.040000915527344,-5.000999927520752 58.84400177001953,-0.6690000295639038 C65.6780014038086,17.650999069213867 53.95000076293945,24.152999877929688 52.92100143432617,25.07200050354004 C47.04199981689453,26.145000457763672 30.506999969482422,27.959999084472656 26.23699951171875,28.16699981689453 C11.718999862670898,41.30500030517578 20.68199920654297,56.018001556396484 20.68199920654297,56.018001556396484 C20.68199920654297,56.018001556396484 -81.19100189208984,55.625999450683594 -81.19100189208984,55.625999450683594 C-81.19100189208984,55.625999450683594 -86.84100341796875,50.90399932861328 -86.84100341796875,50.90399932861328 C-86.84100341796875,50.90399932861328 -89.87999725341797,44.2400016784668 -89.87999725341797,44.2400016784668 C-89.87999725341797,44.2400016784668 -90.74099731445312,10.42199993133545 -90.74099731445312,10.42199993133545 C-90.74099731445312,10.42199993133545 -90.74099731445312,1.4670000076293945 -90.74099731445312,1.4670000076293945 C-90.74099731445312,1.4670000076293945 -88.8239974975586,-4.422999858856201 -88.8239974975586,-4.422999858856201 C-88.8239974975586,-4.422999858856201 -80.20700073242188,-11.343000411987305 -80.20700073242188,-11.343000411987305 C-80.20700073242188,-11.343000411987305 -67.14600372314453,-16.929000854492188 -67.14600372314453,-16.929000854492188 C-67.14600372314453,-16.929000854492188 -52.88399887084961,-19.996000289916992 -52.88399887084961,-19.996000289916992 C-52.88399887084961,-19.996000289916992 -44.7760009765625,-30.937999725341797 -44.7760009765625,-30.937999725341797 C-34.111000061035156,-45.32699966430664 -17.32699966430664,-53.99700164794922 0.5830000042915344,-54.09299850463867 C13.935999870300293,-54.16600036621094 31.173999786376953,-56.016998291015625 50.542999267578125,-55.553001403808594 C63.19599914550781,-55.250999450683594 76.75900268554688,-52.87900161743164 90.74099731445312,-52.15599822998047z"></path></g><g opacity="1" transform="matrix(1,0,0,1,141.46299743652344,63.69900131225586)"><path stroke-linecap="round" stroke-linejoin="round" fill-opacity="0" stroke="rgb(223,223,223)" stroke-opacity="1" stroke-width="2" d=" M-0.3700000047683716,-4.0269999504089355 C-0.24799999594688416,-4.038000106811523 -0.12399999797344208,-4.044000148773193 0,-4.044000148773193 C2.2339999675750732,-4.044000148773193 4.043000221252441,-2.2320001125335693 4.043000221252441,0.0010000000474974513 C4.043000221252441,2.2339999675750732 2.2339999675750732,4.044000148773193 0,4.044000148773193 C-2.2330000400543213,4.044000148773193 -4.043000221252441,2.2339999675750732 -4.043000221252441,0.0010000000474974513"></path></g><g opacity="1" transform="matrix(1,0,0,1,76.53800201416016,67.49199676513672)"><path fill="rgb(236,236,236)" fill-opacity="1" d=" M39.23899841308594,13.039999961853027 C39.23899841308594,13.039999961853027 -44.29100036621094,12.736000061035156 -44.29100036621094,12.736000061035156 C-44.29100036621094,12.736000061035156 -49.35100173950195,4.208000183105469 -49.35100173950195,4.208000183105469 C-49.35100173950195,4.208000183105469 -49.06999969482422,-4.415999889373779 -49.06999969482422,-4.415999889373779 C-49.06999969482422,-4.415999889373779 -54.41899871826172,-12.810999870300293 -54.41899871826172,-12.810999870300293 C-54.41899871826172,-12.810999870300293 54.41899871826172,-13.039999961853027 54.41899871826172,-13.039999961853027 C54.41899871826172,-13.039999961853027 45.54999923706055,-3.7920000553131104 45.54999923706055,-3.7920000553131104 C45.54999923706055,-3.7920000553131104 46.7599983215332,3.6670000553131104 46.7599983215332,3.6670000553131104 C46.7599983215332,3.6670000553131104 39.23899841308594,13.039999961853027 39.23899841308594,13.039999961853027z"></path></g><g opacity="1" transform="matrix(1,0,0,1,21.80500030517578,103.11799621582031)"><path fill="rgb(229,229,229)" fill-opacity="1" d=" M-15.729000091552734,-16.72100067138672 C-11.505000114440918,-15.949999809265137 -3.421999931335449,-14.914999961853027 2.378999948501587,-14.317999839782715 C7.390999794006348,-13.800999641418457 8.748000144958496,-11.131999969482422 11.031999588012695,-6.640999794006348 C15.727999687194824,-0.37599998712539673 13.479000091552734,9.9350004196167 11.260000228881836,15.1850004196167 C9.187000274658203,16.722000122070312 7.250999927520752,15.508000373840332 3.822999954223633,15.569999694824219 C0.39500001072883606,15.690999984741211 -2.746999979019165,15.569000244140625 -2.746999979019165,15.569000244140625 C-2.746999979019165,15.569000244140625 -7.24399995803833,14.208000183105469 -7.24399995803833,14.208000183105469 C-7.24399995803833,14.208000183105469 -12.020999908447266,10.666999816894531 -12.020999908447266,10.666999816894531 C-12.020999908447266,10.666999816894531 -14.522000312805176,3.0899999141693115 -14.522000312805176,3.0899999141693115 C-14.522000312805176,3.0899999141693115 -15.729000091552734,-16.72100067138672 -15.729000091552734,-16.72100067138672z"></path></g><g opacity="1" transform="matrix(1,0,0,1,79.74199676513672,111.63800048828125)"><path fill="rgb(255,255,255)" fill-opacity="1" d=" M51.21500015258789,6.618000030517578 C46.87300109863281,6.638999938964844 42.750999450683594,5.1479997634887695 40.03099822998047,3.447999954223633 C40.03099822998047,3.447999954223633 29.01300048828125,-3.437999963760376 29.01300048828125,-3.437999963760376 C25.799999237060547,-5.445000171661377 20.94700050354004,-6.61299991607666 15.817999839782715,-6.61299991607666 C15.817999839782715,-6.61299991607666 -27.88800048828125,-6.638999938964844 -27.88800048828125,-6.638999938964844 C-34.132999420166016,-6.638999938964844 -39.869998931884766,-4.913000106811523 -42.814998626708984,-2.1480000019073486 C-42.814998626708984,-2.1480000019073486 -51.21500015258789,6.361999988555908 -51.21500015258789,6.361999988555908 C-51.21500015258789,6.361999988555908 51.21500015258789,6.618000030517578 51.21500015258789,6.618000030517578z"></path></g><g opacity="1" transform="matrix(1,0,0,1,111.02300262451172,111.86499786376953)"><path stroke-linecap="round" stroke-linejoin="round" fill-opacity="0" stroke="rgb(74,74,74)" stroke-opacity="1" stroke-width="2" d=" M-19.933000564575195,-6.843999862670898 C-19.933000564575195,-6.843999862670898 -15.463000297546387,-6.840000152587891 -15.463000297546387,-6.840000152587891 C-10.333999633789062,-6.840000152587891 -5.480999946594238,-5.672999858856201 -2.2679998874664307,-3.6649999618530273 C-2.2679998874664307,-3.6649999618530273 8.75100040435791,3.2190001010894775 8.75100040435791,3.2190001010894775 C11.470999717712402,4.920000076293945 15.590999603271484,6.843999862670898 19.933000564575195,6.822000026702881"></path></g><g opacity="1" transform="matrix(1,0,0,1,83.5469970703125,105.01799774169922)"><path stroke-linecap="round" stroke-linejoin="round" fill-opacity="0" stroke="rgb(74,74,74)" stroke-opacity="1" stroke-width="2" d=" M-1.7100000381469727,-0.0020000000949949026 C-1.7100000381469727,-0.0020000000949949026 1.7100000381469727,0.0020000000949949026 1.7100000381469727,0.0020000000949949026"></path></g><g opacity="1" transform="matrix(1,0,0,1,54.874000549316406,109.48799896240234)"><path stroke-linecap="round" stroke-linejoin="round" fill-opacity="0" stroke="rgb(74,74,74)" stroke-opacity="1" stroke-width="2" d=" M-22.354999542236328,4.489999771118164 C-22.354999542236328,4.489999771118164 -17.94700050354004,0.003000000026077032 -17.94700050354004,0.003000000026077032 C-15.001999855041504,-2.763000011444092 -9.263999938964844,-4.489999771118164 -3.0199999809265137,-4.489999771118164 C-3.0199999809265137,-4.489999771118164 22.354999542236328,-4.473999977111816 22.354999542236328,-4.473999977111816"></path></g><g opacity="1" transform="matrix(1,0,0,1,111.49400329589844,24.42099952697754)"><path fill="rgb(255,255,255)" fill-opacity="1" d=" M67.18199920654297,-14.859000205993652 C67.18199920654297,-14.859000205993652 62.98899841308594,-1.2649999856948853 63.237998962402344,7.455999851226807 C63.40299987792969,13.218000411987305 57.314998626708984,17.31599998474121 57.314998626708984,17.31599998474121 C57.314998626708984,17.31599998474121 -5.357999801635742,13.984000205993652 -67.18199920654297,17.608999252319336 C-62.96799850463867,10.96500015258789 -46.41699981689453,-6.10699987411499 -46.41699981689453,-6.10699987411499 C-46.41699981689453,-6.10699987411499 -36.03200149536133,-12.274999618530273 -22.604000091552734,-14.215999603271484 C-9.175999641418457,-16.158000946044922 37.98099899291992,-17.608999252319336 67.18199920654297,-14.859000205993652z"></path></g><g opacity="1" transform="matrix(1,0,0,1,89.11100006103516,35.08700180053711)"><path fill="rgb(247,247,247)" fill-opacity="1" d=" M-13.61400032043457,5.484000205993652 C-12.260000228881836,1.1269999742507935 -9.649999618530273,-3.5160000324249268 -6.9029998779296875,-4.5 C-4.1620001792907715,-5.484000205993652 7.877999782562256,-5.426000118255615 9.100000381469727,-4.814000129699707 C9.89900016784668,-4.4120001792907715 13.12399959564209,-0.8330000042915344 13.61400032043457,5.422999858856201"></path></g><g opacity="1" transform="matrix(1,0,0,1,89.11100006103516,35.08700180053711)"><path stroke-linecap="round" stroke-linejoin="round" fill-opacity="0" stroke="rgb(236,236,236)" stroke-opacity="1" stroke-width="2" d=" M-13.61400032043457,5.484000205993652 C-12.260000228881836,1.1269999742507935 -9.649999618530273,-3.5160000324249268 -6.9029998779296875,-4.5 C-4.1620001792907715,-5.484000205993652 7.877999782562256,-5.426000118255615 9.100000381469727,-4.814000129699707 C9.89900016784668,-4.4120001792907715 13.12399959564209,-0.8330000042915344 13.61400032043457,5.422999858856201"></path></g><g opacity="1" transform="matrix(1,0,0,1,144.61500549316406,35.119998931884766)"><path fill="rgb(247,247,247)" fill-opacity="1" d=" M-15.265999794006348,5.0929999351501465 C-14.6899995803833,1.4919999837875366 -12.845999717712402,-3.7739999294281006 -10.342000007629395,-4.533999919891357 C-7.105000019073486,-5.517000198364258 9.642999649047852,-5.104000091552734 11.086999893188477,-4.491000175476074 C12.175000190734863,-4.03000020980835 15.265999794006348,-0.8510000109672546 15.265999794006348,5.517000198364258"></path></g><g opacity="1" transform="matrix(1,0,0,1,144.61500549316406,35.119998931884766)"><path stroke-linecap="round" stroke-linejoin="round" fill-opacity="0" stroke="rgb(236,236,236)" stroke-opacity="1" stroke-width="2" d=" M-15.265999794006348,5.0929999351501465 C-14.6899995803833,1.4919999837875366 -12.845999717712402,-3.7739999294281006 -10.342000007629395,-4.533999919891357 C-7.105000019073486,-5.517000198364258 9.642999649047852,-5.104000091552734 11.086999893188477,-4.491000175476074 C12.175000190734863,-4.03000020980835 15.265999794006348,-0.8510000109672546 15.265999794006348,5.517000198364258"></path></g><g opacity="1" transform="matrix(1,0,0,1,67.1520004272461,27.89699935913086)"><path stroke-linecap="round" stroke-linejoin="miter" fill-opacity="0" stroke-miterlimit="10" stroke="rgb(236,236,236)" stroke-opacity="1" stroke-width="2" d=" M-14.737000465393066,12.315999984741211 C-8.871999740600586,5.249000072479248 1.7970000505447388,-10.255999565124512 14.737000465393066,-12.315999984741211"></path></g><g opacity="1" transform="matrix(1,0,0,1,123.18499755859375,16.36400032043457)"><path fill="rgb(247,247,247)" fill-opacity="1" d=" M-5.675000190734863,-5.372000217437744 C-5.675000190734863,-5.372000217437744 -4.169000148773193,-1.7059999704360962 -4.169000148773193,-1.7059999704360962 C-4.169000148773193,-1.7059999704360962 -8.366999626159668,-0.8889999985694885 -8.366999626159668,-0.8889999985694885 C-8.979000091552734,-0.7689999938011169 -9.388999938964844,-0.10400000214576721 -9.305000305175781,0.6349999904632568 C-9.305000305175781,0.6349999904632568 -8.984000205993652,3.4609999656677246 -8.984000205993652,3.4609999656677246 C-8.817000389099121,4.928999900817871 -8.069000244140625,5.991000175476074 -6.830999851226807,5.916999816894531 C-6.830999851226807,5.916999816894531 7.288000106811523,5.361999988555908 7.288000106811523,5.361999988555908 C8.03499984741211,5.327000141143799 8.390000343322754,4.63700008392334 8.647000312805176,3.740000009536743 C8.647000312805176,3.740000009536743 9.36299991607666,0.05999999865889549 9.36299991607666,0.05999999865889549 C9.388999938964844,-0.7519999742507935 8.831000328063965,-1.4490000009536743 8.14799976348877,-1.4579999446868896 C8.14799976348877,-1.4579999446868896 0.11800000071525574,-1.63100004196167 0.11800000071525574,-1.63100004196167 C0.11800000071525574,-1.63100004196167 0.5860000252723694,-5.991000175476074 0.5860000252723694,-5.991000175476074"></path></g><g opacity="1" transform="matrix(1,0,0,1,123.18499755859375,16.36400032043457)"><path stroke-linecap="round" stroke-linejoin="round" fill-opacity="0" stroke="rgb(236,236,236)" stroke-opacity="1" stroke-width="2" d=" M-5.675000190734863,-5.372000217437744 C-5.675000190734863,-5.372000217437744 -4.169000148773193,-1.7059999704360962 -4.169000148773193,-1.7059999704360962 C-4.169000148773193,-1.7059999704360962 -8.366999626159668,-0.8889999985694885 -8.366999626159668,-0.8889999985694885 C-8.979000091552734,-0.7689999938011169 -9.388999938964844,-0.10400000214576721 -9.305000305175781,0.6349999904632568 C-9.305000305175781,0.6349999904632568 -8.984000205993652,3.4609999656677246 -8.984000205993652,3.4609999656677246 C-8.817000389099121,4.928999900817871 -8.069000244140625,5.991000175476074 -6.830999851226807,5.916999816894531 C-6.830999851226807,5.916999816894531 7.288000106811523,5.361999988555908 7.288000106811523,5.361999988555908 C8.03499984741211,5.327000141143799 8.390000343322754,4.63700008392334 8.647000312805176,3.740000009536743 C8.647000312805176,3.740000009536743 9.36299991607666,0.05999999865889549 9.36299991607666,0.05999999865889549 C9.388999938964844,-0.7519999742507935 8.831000328063965,-1.4490000009536743 8.14799976348877,-1.4579999446868896 C8.14799976348877,-1.4579999446868896 0.11800000071525574,-1.63100004196167 0.11800000071525574,-1.63100004196167 C0.11800000071525574,-1.63100004196167 0.5860000252723694,-5.991000175476074 0.5860000252723694,-5.991000175476074"></path></g><g opacity="1" transform="matrix(1,0,0,1,113.20999908447266,28.60099983215332)"><path stroke-linecap="round" stroke-linejoin="round" fill-opacity="0" stroke="rgb(83,83,83)" stroke-opacity="1" stroke-width="2" d=" M63.95199966430664,-13.460000038146973 C61.54199981689453,-2.9049999713897705 61.53099822998047,2.128999948501587 59.99599838256836,9.206000328063965 C58.96099853515625,11.619999885559082 56.529998779296875,13.123000144958496 53.909000396728516,12.954999923706055 C40.04800033569336,12.0649995803833 -12.307000160217285,10.11299991607666 -63.95199966430664,13.460000038146973"></path></g><g opacity="1" transform="matrix(1,0,0,1,40.20199966430664,55.005001068115234)"><path stroke-linecap="round" stroke-linejoin="round" fill-opacity="0" stroke="rgb(83,83,83)" stroke-opacity="1" stroke-width="2" d=" M13.0649995803833,-0.5899999737739563 C4.519999980926514,-0.3569999933242798 -4.284999847412109,0.019999999552965164 -13.0649995803833,0.5899999737739563"></path></g><g opacity="1" transform="matrix(1,0,0,1,91.44000244140625,54.49100112915039)"><path stroke-linecap="round" stroke-linejoin="round" fill-opacity="0" stroke="rgb(83,83,83)" stroke-opacity="1" stroke-width="2" d=" M32.63800048828125,0.8330000042915344 C24.106000900268555,0.28600001335144043 -2.1579999923706055,-0.8330000042915344 -32.63800048828125,-0.2070000022649765"></path></g><g opacity="1" transform="matrix(1,0,0,1,188.21400451660156,31.051000595092773)"><path stroke-linecap="round" stroke-linejoin="round" fill-opacity="0" stroke="rgb(83,83,83)" stroke-opacity="1" stroke-width="2" d=" M3.1010000705718994,14.901000022888184 C-0.14800000190734863,13.64799976348877 -2.5409998893737793,12.147000312805176 -3.1010000705718994,10.38599967956543 C-2.6440000534057617,3.757999897003174 -1.6089999675750732,-4.7170000076293945 -0.597000002861023,-14.901000022888184"></path></g><g opacity="1" transform="matrix(1,0,0,1,217.13800048828125,79.10900115966797)"><path stroke-linecap="round" stroke-linejoin="round" fill-opacity="0" stroke="rgb(83,83,83)" stroke-opacity="1" stroke-width="2" d=" M-1.8960000276565552,-25.18899917602539 C-0.6679999828338623,-22.88800048828125 0.19200000166893005,-20.39699935913086 0.6420000195503235,-17.799999237060547 C1.8960000276565552,-10.553000450134277 0.8569999933242798,20.76799964904785 0.5989999771118164,25.18899917602539"></path></g><g opacity="0.05" transform="matrix(1,0,0,1,197.6739959716797,81.50199890136719)"><path fill="rgb(83,83,83)" fill-opacity="1" d=" M23.290000915527344,-33.18899917602539 C23.290000915527344,-33.18899917602539 26.527000427246094,-26.430999755859375 24.527999877929688,-26.312999725341797 C22.52899932861328,-26.195999145507812 -3.5739998817443848,-22.020999908447266 -3.5739998817443848,-22.020999908447266 C-3.5739998817443848,-22.020999908447266 -27.750999450683594,-19.930999755859375 -30.98900032043457,-2.4800000190734863 C-32.974998474121094,8.218000411987305 -32.72100067138672,20.658000946044922 -32.74599838256836,28.607999801635742 C-32.763999938964844,34.55699920654297 -43.071998596191406,36.672000885009766 -43.071998596191406,36.672000885009766 C-43.071998596191406,36.672000885009766 -18.163000106811523,36.965999603271484 -18.163000106811523,36.965999603271484 C-18.163000106811523,36.965999603271484 -21.516000747680664,-4.715000152587891 -9.52400016784668,-4.9720001220703125 C-4.880000114440918,-5.007999897003174 -2.3320000171661377,6.808000087738037 -1.5199999809265137,14.319999694824219 C-1.2970000505447388,16.389999389648438 -1.3769999742507935,23.09600067138672 6.36899995803833,22.961000442504883 C6.36899995803833,22.961000442504883 26.20400047302246,22.722999572753906 26.20400047302246,22.722999572753906 C26.20400047302246,22.722999572753906 28.891000747680664,1.9500000476837158 33.73400115966797,0.531000018119812 C37.849998474121094,0.531000018119812 37.224998474121094,0.7829999923706055 41.040000915527344,13.241000175476074 C43.59700012207031,10.347999572753906 43.32500076293945,6.124000072479248 42.46500015258789,2.361999988555908 C42.46500015258789,2.361999988555908 39.48899841308594,-15.960000038146973 39.48899841308594,-15.960000038146973 C39.48899841308594,-15.960000038146973 29.076000213623047,-36.96699905395508 29.076000213623047,-36.96699905395508 C29.076000213623047,-36.96699905395508 28.118000030517578,-35.678001403808594 28.118000030517578,-35.678001403808594 C26.979999542236328,-34.14699935913086 25.197999954223633,-33.22800064086914 23.290000915527344,-33.18899917602539z"></path></g><g opacity="1" transform="matrix(1,0,0,1,211.53700256347656,60.71900177001953)"><path stroke-linecap="round" stroke-linejoin="round" fill-opacity="0" stroke="rgb(83,83,83)" stroke-opacity="1" stroke-width="2" d=" M0.9369999766349792,-0.00800000037997961 C0.9369999766349792,-0.00800000037997961 -0.9369999766349792,0.00800000037997961 -0.9369999766349792,0.00800000037997961"></path></g><g opacity="1" transform="matrix(1,0,0,1,223.8719940185547,61.15299987792969)"><path stroke-linecap="round" stroke-linejoin="round" fill-opacity="0" stroke="rgb(83,83,83)" stroke-opacity="1" stroke-width="2" d=" M0.9369999766349792,-0.008999999612569809 C0.9369999766349792,-0.008999999612569809 -0.9369999766349792,0.008999999612569809 -0.9369999766349792,0.008999999612569809"></path></g><g opacity="1" transform="matrix(1,0,0,1,209.2550048828125,33.59299850463867)"><path stroke-linecap="round" stroke-linejoin="round" fill-opacity="0" stroke="rgb(74,74,74)" stroke-opacity="1" stroke-width="2" d=" M-0.9070000052452087,-8.144000053405762 C0.09799999743700027,-3.0910000801086426 0.9070000052452087,2.691999912261963 0.8830000162124634,8.144000053405762"></path></g><g opacity="1" transform="matrix(1,0,0,1,133.98899841308594,92.80799865722656)"><path stroke-linecap="round" stroke-linejoin="round" fill-opacity="0" stroke="rgb(74,74,74)" stroke-opacity="1" stroke-width="2" d=" M-16.118999481201172,3.9059998989105225 C-16.118999481201172,3.9059998989105225 -14.97700023651123,2.509000062942505 -14.97700023651123,2.509000062942505 C-12.319999694824219,-0.7429999709129333 -8.41100025177002,-2.7149999141693115 -4.2170000076293945,-2.9189999103546143 C-4.2170000076293945,-2.9189999103546143 16.118999481201172,-3.9059998989105225 16.118999481201172,-3.9059998989105225"></path></g><g opacity="1" transform="matrix(1,0,0,1,22.4950008392334,92.18900299072266)"><path stroke-linecap="round" stroke-linejoin="round" fill-opacity="0" stroke="rgb(74,74,74)" stroke-opacity="1" stroke-width="2" d=" M-10.343000411987305,-4.288000106811523 C-10.343000411987305,-4.288000106811523 0.21400000154972076,-3.2850000858306885 0.21400000154972076,-3.2850000858306885 C4.334000110626221,-2.8940000534057617 7.965000152587891,-0.4169999957084656 9.831999778747559,3.2769999504089355 C9.831999778747559,3.2769999504089355 10.343000411987305,4.288000106811523 10.343000411987305,4.288000106811523"></path></g><g opacity="1" transform="matrix(1,0,0,1,141.5679931640625,66.08899688720703)"><path fill="rgb(83,83,83)" fill-opacity="0.05" d=" M-10.22700023651123,-11.055999755859375 C-10.22700023651123,-11.055999755859375 6.10099983215332,-9.479000091552734 6.455999851226807,0.6290000081062317 C6.5370001792907715,2.9519999027252197 5.440000057220459,5.144999980926514 3.6649999618530273,6.644999980926514 C1.2300000190734863,8.704000473022461 -3.127000093460083,11.324999809265137 -9.229999542236328,10.92300033569336 C-9.229999542236328,10.92300033569336 1.3940000534057617,15.949999809265137 8.732000350952148,5.427999973297119 C8.732000350952148,5.427999973297119 13.527999877929688,-3.7360000610351562 5.939000129699707,-8.430000305175781 C5.939000129699707,-8.430000305175781 -0.6660000085830688,-14.526000022888184 -10.22700023651123,-11.055999755859375z"></path></g><g opacity="0.04" transform="matrix(1,0,0,1,139.44200134277344,24.048999786376953)"><path fill="rgb(74,74,74)" fill-opacity="1" d=" M-33.39099884033203,16.523000717163086 C-33.39099884033203,16.523000717163086 -5.435999870300293,16.46299934387207 -5.435999870300293,16.46299934387207 C-5.435999870300293,16.46299934387207 33.39099884033203,-15.071000099182129 33.39099884033203,-15.071000099182129 C33.39099884033203,-15.071000099182129 7.454999923706055,-16.523000717163086 7.454999923706055,-16.523000717163086 C7.454999923706055,-16.523000717163086 -33.39099884033203,16.523000717163086 -33.39099884033203,16.523000717163086z"></path></g><g opacity="0.04" transform="matrix(1,0,0,1,82.48100280761719,25.115999221801758)"><path fill="rgb(74,74,74)" fill-opacity="1" d=" M-9.409000396728516,-10.586000442504883 C-22.549999237060547,-4.321000099182129 -38.178001403808594,17.768999099731445 -38.178001403808594,17.768999099731445 C-38.178001403808594,17.768999099731445 -11.133999824523926,16.07200050354004 -11.133999824523926,16.07200050354004 C-11.133999824523926,16.07200050354004 38.178001403808594,-16.531999588012695 38.178001403808594,-16.531999588012695 C38.178001403808594,-16.531999588012695 35.00899887084961,-17.770000457763672 35.00899887084961,-17.770000457763672 C35.00899887084961,-17.770000457763672 14.871999740600586,-16.23200035095215 14.871999740600586,-16.23200035095215 C8.744000434875488,-16.04199981689453 -4.510000228881836,-14.27299976348877 -9.409000396728516,-10.586000442504883z"></path></g><g opacity="1" transform="matrix(1,0,0,1,122.91300201416016,61.84299850463867)"><path stroke-linecap="round" stroke-linejoin="round" fill-opacity="0" stroke="rgb(83,83,83)" stroke-opacity="1" stroke-width="2" d=" M51.446998596191406,56.84400177001953 C51.446998596191406,56.84400177001953 -102.40799713134766,56.84400177001953 -102.40799713134766,56.84400177001953 C-108.79399871826172,56.84400177001953 -114.19000244140625,52.20800018310547 -115.26200103759766,45.91299819946289 C-117.91300201416016,30.341999053955078 -116.41400146484375,4.535999774932861 -116.41400146484375,4.535999774932861 C-115.43900299072266,-14.477999687194824 -78.5999984741211,-19.81399917602539 -78.5999984741211,-19.81399917602539 C-78.5999984741211,-19.81399917602539 -64.66200256347656,-37.435001373291016 -57.8650016784668,-42.41600036621094 C-53.43299865722656,-45.66299819946289 -47.89699935913086,-49.625999450683594 -37.779998779296875,-51.34400177001953 C-27.663000106811523,-53.0620002746582 25.21500015258789,-56.84400177001953 65.01399993896484,-51.11800003051758 C98.66400146484375,-44.606998443603516 103.46099853515625,-21.53700065612793 104.5770034790039,-18.349000930786133 C105.80999755859375,-14.82800006866455 107.44300079345703,-11.456000328063965 109.61299896240234,-8.420999526977539 C114.07099914550781,-2.180000066757202 117.91400146484375,17.405000686645508 117.58999633789062,27.773000717163086"></path></g><g opacity="1" transform="matrix(1,0,0,1,207.76699829101562,44.75299835205078)"><path fill="rgb(229,229,229)" fill-opacity="1" d=" M-7.421000003814697,9.366000175476074 C-7.421000003814697,9.366000175476074 -4.243000030517578,6.196000099182129 -4.243000030517578,6.196000099182129 C-3.7100000381469727,5.664999961853027 -3.0239999294281006,5.427999973297119 -2.375999927520752,5.560999870300293 C-0.1679999977350235,6.01200008392334 5.125,6.947999954223633 8.081999778747559,6.23199987411499 C11.883999824523926,5.313000202178955 14.48900032043457,1.7769999504089355 14.16100025177002,-1.2339999675750732 C13.732000350952148,-5.164999961853027 9.380000114440918,-8.942999839782715 1.4420000314712524,-9.366000175476074 C-2.872999906539917,-9.230999946594238 -10.383999824523926,-1.38100004196167 -14.48900032043457,2.7249999046325684"></path></g><g opacity="1" transform="matrix(1,0,0,1,213.45700073242188,42.26900100708008)"><path fill="rgb(255,255,255)" fill-opacity="1" d=" M-8.119999885559082,-5.408999919891357 C-8.119999885559082,-5.408999919891357 8.72700023651123,-4.910999774932861 5.909999847412109,6.882999897003174 C5.909999847412109,6.882999897003174 15.178999900817871,-3.934999942779541 -4.249000072479248,-6.883999824523926 C-4.249000072479248,-6.883999824523926 -8.119999885559082,-5.408999919891357 -8.119999885559082,-5.408999919891357z"></path></g><g opacity="1" transform="matrix(1,0,0,1,208.2530059814453,44.75299835205078)"><path stroke-linecap="round" stroke-linejoin="round" fill-opacity="0" stroke="rgb(83,83,83)" stroke-opacity="1" stroke-width="2" d=" M-7.906000137329102,9.366000175476074 C-7.906000137329102,9.366000175476074 -4.728000164031982,6.196000099182129 -4.728000164031982,6.196000099182129 C-4.195000171661377,5.664999961853027 -3.509000062942505,5.427999973297119 -2.8610000610351562,5.560999870300293 C-0.652999997138977,6.01200008392334 4.639999866485596,6.947999954223633 7.5970001220703125,6.23199987411499 C11.39900016784668,5.313000202178955 14.003999710083008,1.7769999504089355 13.675999641418457,-1.2339999675750732 C13.246999740600586,-5.164999961853027 8.895000457763672,-8.942999839782715 0.9570000171661377,-9.366000175476074 C-3.3580000400543213,-9.230999946594238 -9.89900016784668,-2.25600004196167 -14.003999710083008,1.850000023841858"></path></g><g opacity="1" transform="matrix(1,0,0,1,222.93600463867188,47.720001220703125)"><path stroke-linecap="round" stroke-linejoin="round" fill-opacity="0" stroke="rgb(83,83,83)" stroke-opacity="1" stroke-width="2" d=" M2.444000005722046,-0.24199999868869781 C2.444000005722046,-0.24199999868869781 0.5120000243186951,0.00800000037997961 -2.444000005722046,0.24199999868869781"></path></g><g opacity="1" transform="matrix(1,0,0,1,137.00599670410156,66.33599853515625)"><path stroke-linecap="round" stroke-linejoin="round" fill-opacity="0" stroke="rgb(74,74,74)" stroke-opacity="1" stroke-width="2" d=" M14.916999816894531,0 C14.916999816894531,6.747000217437744 8.23799991607666,12.218000411987305 0,12.218000411987305 C-8.23900032043457,12.218000411987305 -14.916999816894531,6.747000217437744 -14.916999816894531,0 C-14.916999816894531,-6.748000144958496 -8.23900032043457,-12.218000411987305 0,-12.218000411987305 C8.23799991607666,-12.218000411987305 14.916999816894531,-6.748000144958496 14.916999816894531,0z"></path></g><g opacity="1" transform="matrix(1,0,0,1,18.27199935913086,66.33599853515625)"><path stroke-linecap="round" stroke-linejoin="round" fill-opacity="0" stroke="rgb(74,74,74)" stroke-opacity="1" stroke-width="2" d=" M-4.914999961853027,-12.064000129699707 C-4.302000045776367,-12.166000366210938 -3.6730000972747803,-12.217000007629395 -3.0320000648498535,-12.217000007629395 C3.484999895095825,-12.217000007629395 8.767999649047852,-6.749000072479248 8.767999649047852,-0.0010000000474974513 C8.767999649047852,6.747000217437744 3.484999895095825,12.217000007629395 -3.0320000648498535,12.217000007629395 C-5.11299991607666,12.217000007629395 -7.070000171661377,11.65999984741211 -8.767999649047852,10.680000305175781"></path></g><g opacity="1" transform="matrix(1,0,0,1,132.6719970703125,103.58899688720703)"><path fill="rgb(246,246,246)" fill-opacity="1" d=" M4.539000034332275,0 C4.539000034332275,3.11299991607666 2.506999969482422,5.638000011444092 0,5.638000011444092 C-2.506999969482422,5.638000011444092 -4.539000034332275,3.11299991607666 -4.539000034332275,0 C-4.539000034332275,-3.11299991607666 -2.506999969482422,-5.638000011444092 0,-5.638000011444092 C2.506999969482422,-5.638000011444092 4.539000034332275,-3.11299991607666 4.539000034332275,0z"></path></g><g opacity="1" transform="matrix(1,0,0,1,131.74099731445312,103.58999633789062)"><path stroke-linecap="round" stroke-linejoin="round" fill-opacity="0" stroke="rgb(74,74,74)" stroke-opacity="1" stroke-width="2" d=" M-2.4590001106262207,-4.739999771118164 C-1.7510000467300415,-5.308000087738037 -0.906000018119812,-5.638000011444092 0,-5.638000011444092 C2.506999969482422,-5.638000011444092 4.539000034332275,-3.114000082015991 4.539000034332275,-0.0010000000474974513 C4.539000034332275,3.11299991607666 2.506999969482422,5.63700008392334 0,5.63700008392334 C-2.506999969482422,5.63700008392334 -4.539000034332275,3.11299991607666 -4.539000034332275,-0.0010000000474974513 C-4.539000034332275,-0.48899999260902405 -4.488999843597412,-0.9620000123977661 -4.394999980926514,-1.4140000343322754"></path></g><g opacity="1" transform="matrix(1,0,0,1,20.67300033569336,103.58899688720703)"><path fill="rgb(246,246,246)" fill-opacity="1" d=" M4.293000221252441,0 C4.293000221252441,3.11299991607666 2.371000051498413,5.638000011444092 0,5.638000011444092 C-2.371000051498413,5.638000011444092 -4.293000221252441,3.11299991607666 -4.293000221252441,0 C-4.293000221252441,-3.11299991607666 -2.371000051498413,-5.638000011444092 0,-5.638000011444092 C2.371000051498413,-5.638000011444092 4.293000221252441,-3.11299991607666 4.293000221252441,0z"></path></g><g opacity="1" transform="matrix(1,0,0,1,19.67300033569336,103.58899688720703)"><path stroke-linecap="round" stroke-linejoin="round" fill-opacity="0" stroke="rgb(74,74,74)" stroke-opacity="1" stroke-width="2" d=" M1.8240000009536743,5.104000091552734 C1.2710000276565552,5.446000099182129 0.6520000100135803,5.63700008392334 0,5.63700008392334 C-2.371000051498413,5.63700008392334 -4.293000221252441,3.114000082015991 -4.293000221252441,0.0010000000474974513 C-4.293000221252441,-3.11299991607666 -2.371000051498413,-5.638000011444092 0,-5.638000011444092 C2.371000051498413,-5.638000011444092 4.293000221252441,-3.11299991607666 4.293000221252441,0.0010000000474974513"></path></g><g opacity="1" transform="matrix(1,0,0,1,75.14800262451172,77.10199737548828)"><path stroke-linecap="round" stroke-linejoin="round" fill-opacity="0" stroke="rgb(74,74,74)" stroke-opacity="1" stroke-width="2" d=" M46.172000885009766,-3.312999963760376 C46.172000885009766,-3.312999963760376 42.95899963378906,1.1039999723434448 42.95899963378906,1.1039999723434448 C42.29899978637695,2.2239999771118164 40.624000549316406,2.9730000495910645 38.73699951171875,2.993000030517578 C11.795999526977539,2.993000030517578 -16.829999923706055,3.312999963760376 -40.00699996948242,2.993000030517578 C-41.98400115966797,2.9159998893737793 -43.689998626708984,2.0889999866485596 -44.321998596191406,0.9010000228881836 C-44.321998596191406,0.9010000228881836 -46.172000885009766,-2.703000068664551 -46.172000885009766,-2.703000068664551"></path></g><g opacity="1" transform="matrix(1,0,0,1,0,0)"><path stroke-linecap="round" stroke-linejoin="round" fill-opacity="0" stroke="rgb(83,83,83)" stroke-opacity="1" stroke-width="2" d=" M71.77899932861328,63.42399978637695 C71.77899932861328,63.42399978637695 67.1520004272461,63.42399978637695 67.1520004272461,63.42399978637695"></path></g><g opacity="1" transform="matrix(1,0,0,1,18.704999923706055,65.4540023803711)"><path fill="rgb(235,235,235)" fill-opacity="1" d=" M-5.7170000076293945,-3.4140000343322754 C-4.644000053405762,-5.366000175476074 -2.678999900817871,-6.673999786376953 -0.4320000112056732,-6.673999786376953 C2.9639999866485596,-6.673999786376953 5.7170000076293945,-3.686000108718872 5.7170000076293945,0 C5.7170000076293945,3.686000108718872 2.9639999866485596,6.673999786376953 -0.4320000112056732,6.673999786376953 C-2.5829999446868896,6.673999786376953 -4.47599983215332,5.474999904632568 -5.574999809265137,3.6589999198913574"></path></g><g opacity="1" transform="matrix(1,0,0,1,18.704999923706055,65.4540023803711)"><path stroke-linecap="round" stroke-linejoin="round" fill-opacity="0" stroke="rgb(223,223,223)" stroke-opacity="1" stroke-width="2" d=" M-5.7170000076293945,-3.4140000343322754 C-4.644000053405762,-5.366000175476074 -2.678999900817871,-6.673999786376953 -0.4320000112056732,-6.673999786376953 C2.9639999866485596,-6.673999786376953 5.7170000076293945,-3.686000108718872 5.7170000076293945,0 C5.7170000076293945,3.686000108718872 2.9639999866485596,6.673999786376953 -0.4320000112056732,6.673999786376953 C-2.5829999446868896,6.673999786376953 -4.47599983215332,5.474999904632568 -5.574999809265137,3.6589999198913574"></path></g><g opacity="1" transform="matrix(1,0,0,1,132.74600219726562,66.0510025024414)"><path fill="rgb(235,235,235)" fill-opacity="1" d=" M2.2990000247955322,6.267000198364258 C1.5820000171661377,6.531000137329102 0.8080000281333923,6.673999786376953 0,6.673999786376953 C-3.686000108718872,6.673999786376953 -6.673999786376953,3.686000108718872 -6.673999786376953,0 C-6.673999786376953,-3.686000108718872 -3.686000108718872,-6.673999786376953 0,-6.673999786376953 C3.686000108718872,-6.673999786376953 6.673999786376953,-3.686000108718872 6.673999786376953,0 C6.673999786376953,1.6990000009536743 6.039000034332275,3.247999906539917 4.99399995803833,4.427000045776367"></path></g><g opacity="1" transform="matrix(1,0,0,1,132.74600219726562,66.0510025024414)"><path stroke-linecap="round" stroke-linejoin="round" fill-opacity="0" stroke="rgb(223,223,223)" stroke-opacity="1" stroke-width="2" d=" M2.2990000247955322,6.267000198364258 C1.5820000171661377,6.531000137329102 0.8080000281333923,6.673999786376953 0,6.673999786376953 C-3.686000108718872,6.673999786376953 -6.673999786376953,3.686000108718872 -6.673999786376953,0 C-6.673999786376953,-3.686000108718872 -3.686000108718872,-6.673999786376953 0,-6.673999786376953 C3.686000108718872,-6.673999786376953 6.673999786376953,-3.686000108718872 6.673999786376953,0 C6.673999786376953,1.6990000009536743 6.039000034332275,3.247999906539917 4.99399995803833,4.427000045776367"></path></g><g opacity="0.05" transform="matrix(1,0,0,1,131.34100341796875,65.0260009765625)"><path fill="rgb(74,74,74)" fill-opacity="1" d=" M-2.86299991607666,-9.585000038146973 C-2.86299991607666,-9.585000038146973 -9.751999855041504,-1.3259999752044678 -9.751999855041504,-1.3259999752044678 C-9.751999855041504,-1.3259999752044678 -9.251999855041504,-0.5709999799728394 -9.251999855041504,6.061999797821045 C-7.757999897003174,6.5960001945495605 -6.242000102996826,10.322999954223633 -4.255000114440918,10.432999610900879 C-4.255000114440918,10.432999610900879 9.751999855041504,-10.432000160217285 9.751999855041504,-10.432000160217285 C9.751999855041504,-10.432000160217285 -2.86299991607666,-9.585000038146973 -2.86299991607666,-9.585000038146973z"></path></g><g opacity="1" transform="matrix(1,0,0,1,144.5749969482422,69.86499786376953)"><path fill="rgb(74,74,74)" fill-opacity="0.05" d=" M5.5329999923706055,-9.371999740600586 C5.5329999923706055,-9.371999740600586 -7.363999843597412,9.373000144958496 -7.363999843597412,9.373000144958496 C-7.363999843597412,9.373000144958496 -3.49399995803833,8.03600025177002 -1.1130000352859497,7.9770002365112305 C2.063999891281128,4.89900016784668 6.322999954223633,5.51800012588501 7.3470001220703125,-2.121999979019165 C7.394000053405762,-2.4679999351501465 7.322000026702881,-4.484000205993652 7.3470001220703125,-4.839000225067139 C6.806000232696533,-6.789000034332275 6.806000232696533,-6.789000034332275 6.604000091552734,-8.09000015258789 C6.604000091552734,-8.09000015258789 5.5329999923706055,-9.371999740600586 5.5329999923706055,-9.371999740600586z"></path></g><g opacity="1" transform="matrix(1,0,0,1,12.154999732971191,61.53499984741211)"><path stroke-linecap="round" stroke-linejoin="round" fill-opacity="0" stroke="rgb(223,223,223)" stroke-opacity="1" stroke-width="2" d=" M1.2309999465942383,-3.6070001125335693 C2.0399999618530273,-2.683000087738037 2.4089999198913574,-1.340000033378601 2.1059999465942383,0.02199999988079071 C1.6200000047683716,2.2019999027252197 -0.4009999930858612,3.6070001125335693 -2.4089999198913574,3.1600000858306885"></path></g><g opacity="0.05" transform="matrix(1,0,0,1,19.884000778198242,68.46399688720703)"><path fill="rgb(74,74,74)" fill-opacity="1" d=" M2.2360000610351562,8.548999786376953 C2.2360000610351562,8.548999786376953 6.679999828338623,1.746999979019165 6.679999828338623,1.746999979019165 C6.679999828338623,1.746999979019165 7.440999984741211,1.597000002861023 7.440999984741211,-5.0370001792907715 C6.064000129699707,-5.570000171661377 6.567999839782715,-9.979999542236328 4.736999988555908,-10.090999603271484 C4.736999988555908,-10.090999603271484 -7.441999912261963,10.09000015258789 -7.441999912261963,10.09000015258789 C-7.441999912261963,10.09000015258789 2.2360000610351562,8.548999786376953 2.2360000610351562,8.548999786376953z"></path></g><g opacity="1" transform="matrix(1,0,0,1,12.861000061035156,63.1619987487793)"><path fill="rgb(74,74,74)" fill-opacity="0.05" d=" M-6.084000110626221,8.895000457763672 C-6.084000110626221,8.895000457763672 6.784999847412109,-8.567999839782715 6.784999847412109,-8.567999839782715 C6.784999847412109,-8.567999839782715 2.690999984741211,-8.949000358581543 0.4970000088214874,-8.888999938964844 C-2.428999900817871,-5.810999870300293 -5.824999809265137,-4.711999893188477 -6.769000053405762,2.927000045776367 C-6.811999797821045,3.2730000019073486 -6.744999885559082,5.289999961853027 -6.769000053405762,5.644000053405762 C-6.269999980926514,7.593999862670898 -6.269999980926514,7.593999862670898 -6.084000110626221,8.895000457763672z"></path></g><g opacity="1" transform="matrix(1,0,0,1,133.72799682617188,103.19200134277344)"><path fill="rgb(83,83,83)" fill-opacity="0.05" d=" M-2.9170000553131104,-5.119999885559082 C-2.9170000553131104,-5.119999885559082 2.799999952316284,-1.4830000400543213 -0.44999998807907104,5.119999885559082 C-0.44999998807907104,5.119999885559082 8.565999984741211,-2.364000082015991 -2.9170000553131104,-5.119999885559082z"></path></g><g opacity="0.05" transform="matrix(1,0,0,1,22.722999572753906,103.75499725341797)"><path fill="rgb(83,83,83)" fill-opacity="1" d=" M-2.3929998874664307,-5.73199987411499 C-2.3929998874664307,-5.73199987411499 0.8610000014305115,0.7680000066757202 -0.8999999761581421,5.732999801635742 C-0.8999999761581421,5.732999801635742 7.423999786376953,-0.6119999885559082 -2.3929998874664307,-5.73199987411499z"></path></g><g opacity="1" transform="matrix(1,0,0,1,88.65699768066406,111.49099731445312)"><path fill="rgb(83,83,83)" fill-opacity="0.05" d=" M-37.875999450683594,-6.474999904632568 C-37.875999450683594,-6.474999904632568 8.354000091552734,-5.171000003814697 12.38700008392334,-3.5980000495910645 C12.38700008392334,-3.5980000495910645 16.493999481201172,-1.5379999876022339 19.61199951171875,0.6460000276565552 C22.33099937438965,2.549999952316284 20.12700080871582,5.368000030517578 15.763999938964844,5.578999996185303 C15.763999938964844,5.578999996185303 -12.118000030517578,6.927000045776367 -12.118000030517578,6.927000045776367 C-12.118000030517578,6.927000045776367 37.87699890136719,6.927000045776367 37.87699890136719,6.927000045776367 C37.87699890136719,6.927000045776367 15.451000213623047,-5.441999912261963 13.081999778747559,-6.468999862670898 C10.71399974822998,-7.495999813079834 -37.875999450683594,-6.474999904632568 -37.875999450683594,-6.474999904632568z"></path></g><g opacity="0.05" transform="matrix(1,0,0,1,24.91200065612793,96.8030014038086)"><path fill="rgb(83,83,83)" fill-opacity="1" d=" M-10.692000389099121,-8.706000328063965 C-10.692000389099121,-8.706000328063965 3.3420000076293945,-9.305000305175781 10.677000045776367,8.708999633789062 C10.677000045776367,8.708999633789062 11.432000160217285,-0.32600000500679016 1.6950000524520874,-6.84499979019165 C1.6950000524520874,-6.84499979019165 -10.692000389099121,-8.706000328063965 -10.692000389099121,-8.706000328063965z"></path></g><g opacity="1" transform="matrix(1,0,0,1,85.61199951171875,67.34400177001953)"><path fill="rgb(83,83,83)" fill-opacity="0.05" d=" M39.13800048828125,-9.133000373840332 C39.13800048828125,-9.133000373840332 45.345001220703125,-12.892000198364258 45.345001220703125,-12.892000198364258 C45.345001220703125,-12.892000198364258 -36.33700180053711,-12.265000343322754 -44.446998596191406,-12.475000381469727 C-44.446998596191406,-12.475000381469727 31.09600067138672,-7.8520002365112305 31.09600067138672,-7.8520002365112305 C33.529998779296875,-7.702000141143799 35.073001861572266,-5.23199987411499 34.21099853515625,-2.9489998817443848 C33.67900085449219,-1.5429999828338623 33.249000549316406,0.026000000536441803 33.194000244140625,1.5119999647140503 C33.13399887084961,3.130000114440918 32.5989990234375,4.690999984741211 31.63800048828125,5.994999885559082 C31.63800048828125,5.994999885559082 31.209999084472656,6.574999809265137 31.209999084472656,6.574999809265137 C29.76799964904785,8.531999588012695 27.51799964904785,9.730999946594238 25.09000015258789,9.836000442504883 C25.09000015258789,9.836000442504883 -45.345001220703125,12.892999649047852 -45.345001220703125,12.892999649047852 C-45.345001220703125,12.892999649047852 29.07900047302246,12.892999649047852 29.07900047302246,12.892999649047852 C29.07900047302246,12.892999649047852 37.68600082397461,3.815000057220459 37.68600082397461,3.815000057220459 C37.68600082397461,3.815000057220459 33.66299819946289,-1.5169999599456787 39.13800048828125,-9.133000373840332z"></path></g></g><g style="display: block;" transform="matrix(1,0,0,1,324.72698974609375,64.02099609375)" opacity="1"><g opacity="1" transform="matrix(1,0,0,1,122.91200256347656,29.15999984741211)"><path fill="rgb(83,83,83)" fill-opacity="0.05" d=" M53.856998443603516,-12.395999908447266 C53.856998443603516,-12.395999908447266 47.88199996948242,5.959000110626221 47.88199996948242,5.959000110626221 C47.138999938964844,8.244000434875488 45.029998779296875,9.805999755859375 42.62799835205078,9.85099983215332 C42.62799835205078,9.85099983215332 -53.856998443603516,11.645000457763672 -53.856998443603516,11.645000457763672 C-53.856998443603516,11.645000457763672 37.48699951171875,10.62399959564209 44.20800018310547,12.395999908447266 C44.20800018310547,12.395999908447266 49.50899887084961,12.529000282287598 50.75,7.105999946594238 C50.75,7.105999946594238 53.856998443603516,-12.395999908447266 53.856998443603516,-12.395999908447266z"></path></g><g opacity="1" transform="matrix(1,0,0,1,185.73500061035156,101.53900146484375)"><path stroke-linecap="round" stroke-linejoin="round" fill-opacity="0" stroke="rgb(83,83,83)" stroke-opacity="1" stroke-width="2" d=" M7.059000015258789,-19.815000534057617 C5.613999843597412,-23.118000030517578 3.871000051498413,-25.045000076293945 1.996000051498413,-25.045000076293945 C-3.005000114440918,-25.045000076293945 -7.059000015258789,-11.333000183105469 -7.059000015258789,5.581999778747559 C-7.059000015258789,12.973999977111816 -6.284999847412109,19.753000259399414 -4.995999813079834,25.045000076293945"></path></g><g opacity="1" transform="matrix(1,0,0,1,189.3939971923828,114.48100280761719)"><path stroke-linecap="round" stroke-linejoin="round" fill-opacity="0" stroke="rgb(83,83,83)" stroke-opacity="1" stroke-width="2" d=" M4.313000202178955,15.569000244140625 C6.201000213623047,9.96500015258789 7.392000198364258,1.75 7.392000198364258,-7.406000137329102 C7.392000198364258,-13.173999786376953 6.928999900817871,-18.523000717163086 6.0980000495910645,-23.173999786376953"></path></g><g opacity="1" transform="matrix(1,0,0,1,194.3939971923828,86.39399719238281)"><path stroke-linecap="round" stroke-linejoin="round" fill-opacity="0" stroke="rgb(83,83,83)" stroke-opacity="1" stroke-width="2" d=" M0.15199999511241913,0.5580000281333923 C0.05299999937415123,0.17800000309944153 -0.04800000041723251,-0.1940000057220459 -0.15199999511241913,-0.5580000281333923"></path></g><g opacity="1" transform="matrix(1,0,0,1,231.91299438476562,109.84500122070312)"><path stroke-linecap="round" stroke-linejoin="round" fill-opacity="0" stroke="rgb(83,83,83)" stroke-opacity="1" stroke-width="2" d=" M-7.511000156402588,-5.605000019073486 C-7.61299991607666,-3.7939999103546143 -7.666999816894531,-1.9199999570846558 -7.666999816894531,-0.0010000000474974513 C-7.666999816894531,8.232000350952148 -6.681000232696533,15.628999710083008 -5.113999843597412,20.72100067138672 C-4.39300012588501,23.062999725341797 4.6620001792907715,22.31800079345703 5.308000087738037,20.070999145507812 C6.76200008392334,15.008999824523926 7.666999816894531,7.888000011444092 7.666999816894531,-0.0010000000474974513 C7.666999816894531,-15.359999656677246 4.235000133514404,-27.81100082397461 0,-27.81100082397461 C-3.7060000896453857,-27.81100082397461 -6.796000003814697,-18.277999877929688 -7.511000156402588,-5.605000019073486z"></path></g></g><g style="display: block;" transform="matrix(1,0,0,1,39.110015869140625,164.95599365234375)" opacity="1"><g opacity="1" transform="matrix(1,0,0,1,512.2059936523438,20.086999893188477)"><path fill="rgb(247,247,247)" fill-opacity="1" d=" M-54.35100173950195,14.503000259399414 C-54.35100173950195,2.069999933242798 -43.667999267578125,-7.885000228881836 -32.25600051879883,-7.885000228881836 C-30.54400062561035,-7.885000228881836 -28.8799991607666,-7.6579999923706055 -27.288000106811523,-7.229000091552734 C-25.503000259399414,-6.749000072479248 -23.615999221801758,-7.169000148773193 -22.190000534057617,-8.434000015258789 C-21.606000900268555,-8.95300006866455 -21.000999450683594,-9.444999694824219 -20.37700080871582,-9.90999984741211 C-15.996999740600586,-13.178000450134277 -10.692999839782715,-15.086999893188477 -4.985000133514404,-15.086999893188477 C5.098999977111816,-15.086999893188477 13.904999732971191,-9.130000114440918 18.62299919128418,-0.2619999945163727 C19.607999801635742,1.590000033378601 21.861000061035156,2.058000087738037 23.378000259399414,0.6990000009536743 C26.226999282836914,-1.8519999980926514 29.87299919128418,-3.382999897003174 33.854000091552734,-3.382999897003174 C36.242000579833984,-3.382999897003174 38.51100158691406,-2.8329999446868896 40.56100082397461,-1.8420000076293945 C40.56100082397461,-1.8420000076293945 51.27899932861328,1.0509999990463257 54.349998474121094,15.086999893188477"></path></g><g opacity="1" transform="matrix(1,0,0,1,499.49200439453125,19.639999389648438)"><path fill="rgb(247,247,247)" fill-opacity="1" d=" M-10.156000137329102,4.064000129699707 C-10.156000137329102,1.2389999628067017 -6.126999855041504,-4.064000129699707 0.382999986410141,-0.014999999664723873 C2.4639999866485596,-4.064000129699707 8.687999725341797,-3.5480000972747803 10.156000137329102,0.25999999046325684"></path></g><g opacity="1" transform="matrix(1,0,0,1,499.49200439453125,19.639999389648438)"><path stroke-linecap="round" stroke-linejoin="round" fill-opacity="0" stroke="rgb(83,83,83)" stroke-opacity="1" stroke-width="2" d=" M-10.156000137329102,4.064000129699707 C-10.156000137329102,1.2389999628067017 -6.126999855041504,-4.064000129699707 0.382999986410141,-0.014999999664723873 C2.4639999866485596,-4.064000129699707 8.687999725341797,-3.5480000972747803 10.156000137329102,0.25999999046325684"></path></g><g opacity="1" transform="matrix(1,0,0,1,505.3110046386719,19.79599952697754)"><path stroke-linecap="round" stroke-linejoin="round" fill-opacity="0" stroke="rgb(83,83,83)" stroke-opacity="1" stroke-width="2" d=" M47.45600128173828,-1.5490000247955322 C45.40700149536133,-2.5399999618530273 43.137001037597656,-3.0920000076293945 40.749000549316406,-3.0920000076293945 C36.76900100708008,-3.0920000076293945 33.12200164794922,-1.562000036239624 30.27400016784668,0.9900000095367432 C28.756999969482422,2.3480000495910645 26.503999710083008,1.8830000162124634 25.518999099731445,0.03099999949336052 C20.799999237060547,-8.836999893188477 11.994999885559082,-14.795999526977539 1.909999966621399,-14.795999526977539 C-3.7980000972747803,-14.795999526977539 -9.10200023651123,-12.88599967956543 -13.482000350952148,-9.618000030517578 C-14.104999542236328,-9.152999877929688 -14.710000038146973,-8.66100025177002 -15.295000076293945,-8.142999649047852 C-16.72100067138672,-6.876999855041504 -18.607999801635742,-6.456999778747559 -20.39299964904785,-6.938000202178955 C-21.983999252319336,-7.366000175476074 -23.648000717163086,-7.5929999351501465 -25.360000610351562,-7.5929999351501465 C-36.77199935913086,-7.5929999351501465 -47.45600128173828,2.36299991607666 -47.45600128173828,14.795999526977539"></path></g><g opacity="1" transform="matrix(1,0,0,1,556.1829833984375,20.465999603271484)"><path stroke-linecap="round" stroke-linejoin="round" fill-opacity="0" stroke="rgb(83,83,83)" stroke-opacity="1" stroke-width="2" d=" M0.2639999985694885,0.2750000059604645 C0.09200000017881393,0.08799999952316284 -0.08399999886751175,-0.0949999988079071 -0.2639999985694885,-0.2750000059604645"></path></g><g opacity="1" transform="matrix(1,0,0,1,0,0)"><path stroke-linecap="round" stroke-linejoin="round" fill-opacity="0" stroke="rgb(83,83,83)" stroke-opacity="1" stroke-width="2" d=" M1,34.54100036621094 C1,34.54100036621094 587.8259887695312,34.54100036621094 587.8259887695312,34.54100036621094"></path></g><g opacity="1" transform="matrix(1,0,0,1,232.49400329589844,29.7189998626709)"><path fill="rgb(246,246,246)" fill-opacity="1" d=" M-25.218000411987305,6.73199987411499 C-21.558000564575195,-6.997000217437744 -6.754000186920166,-9.480999946594238 2.0390000343322754,-0.5770000219345093 C2.6059999465942383,-0.0010000000474974513 3.5260000228881836,0.039000000804662704 4.120999813079834,-0.5070000290870667 C8.95300006866455,-4.940000057220459 21.12299919128418,-5.414000034332275 25.125,6.059000015258789 C25.125,6.059000015258789 25.216999053955078,9.482000350952148 25.216999053955078,9.482000350952148 C25.216999053955078,9.482000350952148 -25.218000411987305,9.482000350952148 -25.218000411987305,9.482000350952148 C-25.218000411987305,9.482000350952148 -25.218000411987305,6.73199987411499 -25.218000411987305,6.73199987411499z"></path></g><g opacity="1" transform="matrix(1,0,0,1,232.447998046875,26.85700035095215)"><path stroke-linecap="round" stroke-linejoin="round" fill-opacity="0" stroke="rgb(83,83,83)" stroke-opacity="1" stroke-width="2" d=" M-25.17099952697754,7.684000015258789 C-20.5049991607666,-3.2850000858306885 -6.466000080108643,-7.684000015258789 2.312999963760376,1.6089999675750732 C2.7739999294281006,2.0959999561309814 3.5350000858306885,2.056999921798706 4.010000228881836,1.5839999914169312 C8.729000091552734,-3.124000072479248 21.13599967956543,-2.638000011444092 25.17099952697754,7.684000015258789"></path></g></g></g></g></svg>