<?xml version="1.0" encoding="UTF-8" standalone="no"?>
<!-- Created with Inkscape (http://www.inkscape.org/) -->

<svg
   version="1.1"
   id="svg1"
   xml:space="preserve"
   width="497.84192"
   height="276.38193"
   xmlns:inkscape="http://www.inkscape.org/namespaces/inkscape"
   xmlns:sodipodi="http://sodipodi.sourceforge.net/DTD/sodipodi-0.dtd"
   xmlns="http://www.w3.org/2000/svg"
   xmlns:svg="http://www.w3.org/2000/svg"><defs
     id="defs1" /><sodipodi:namedview
     id="namedview1"
     pagecolor="#505050"
     bordercolor="#eeeeee"
     borderopacity="1"
     inkscape:showpageshadow="0"
     inkscape:pageopacity="0"
     inkscape:pagecheckerboard="0"
     inkscape:deskcolor="#d1d1d1" /><inkscape:clipboard
     style="font-variation-settings:normal;opacity:1;vector-effect:none;fill:#000000;fill-opacity:1;stroke-width:3.77952756;stroke-linecap:butt;stroke-linejoin:miter;stroke-miterlimit:4;stroke-dasharray:none;stroke-dashoffset:0;stroke-opacity:1;-inkscape-stroke:none;stop-color:#000000;stop-opacity:1"
     min="461.35584,-261.07503"
     max="959.19776,15.306896"
     geom-min="461.35584,-261.07503"
     geom-max="959.19776,15.306896" /><g
     id="g1"
     transform="matrix(3.7795276,0,0,3.7795276,-461.35584,261.07504)"><path
       style="fill:#000000"
       d="m 145.65724,3.601056 c -0.21749,-0.25466 -0.66762,-1.15042 -1.0003,-1.99057 -0.76736,-1.93790996 -1.98673,-3.63183 -2.61438,-3.63183 -0.26685,0 -1.39102,-0.23167 -2.49815,-0.51482 -7.9036,-2.02141 -13.25874,-6.40907 -15.92342,-13.04665 -1.20583,-3.00367 -1.54737,-4.8497 -1.55388,-8.39894 -0.0149,-8.12662 3.66038,-16.07853 10.46675,-22.64589 1.26825,-1.22372 2.46589,-2.22495 2.6614,-2.22495 0.19552,0 0.58661,0.169 0.86908,0.37555 0.50306,0.36785 0.49588,0.42621 -0.3496,2.84427 -0.95574,2.73342 -1.4805,6.20335 -1.15361,7.6281 l 0.21246,0.92604 0.5053,-0.89957 c 0.27791,-0.49476 1.62587,-2.57835 2.99547,-4.63021 3.96441,-5.93923 5.98798,-10.41428 6.65961,-14.72745 0.37139,-2.38509 0.20607,-4.69185 -0.54792,-7.64492 -0.63209,-2.47565 -0.55634,-3.24951 0.37801,-3.86172 0.79682,-0.5221 1.1059,-0.37598 5.56593,2.63131 6.95677,4.69078 11.68035,10.95333 13.29246,17.62319 0.61959,2.56348 0.6053,8.0701 -0.0275,10.58333 -1.3367,5.30914 -4.91999,10.54904 -9.06202,13.25152 -1.95822,1.27765 -3.12653,1.52551 -4.30883,0.91412 -1.34613,-0.69612 -1.8595,-2.14627 -1.86644,-5.27233 l -0.006,-2.61607 -0.80624,1.01452 c -3.44225,4.33151 -4.53421,8.88432 -3.08694,12.87068 0.88879,2.44811 3.73431,8.92469 3.92512,8.93385 0.0903,0.004 0.62511,-1.02644 1.1884,-2.29061 1.45834,-3.27286 2.94785,-5.22899 7.41666,-9.74005 4.78528,-4.83054 5.9925,-6.37218 8.03481,-10.26056 1.74606,-3.32434 2.4759,-5.75156 2.76224,-9.18632 0.14546,-1.74481 0.3117,-2.38241 0.74159,-2.84427 0.80728,-0.86733 1.3477,-0.74019 2.52138,0.59318 1.97588,2.24473 3.81029,6.89987 4.56266,11.57858 0.41432,2.57648 0.19323,8.81324 -0.41031,11.57459 -1.63917,7.49965 -6.21371,13.29015 -13.19987,16.70852 -2.87946,1.40894 -3.55203,1.53274 -4.23385,0.77933 -0.59883,-0.66169 -0.27194,-1.18117 1.5144,-2.4066 1.29807,-0.89048 2.65493,-2.52384 2.92186,-3.5173 0.0701,-0.26102 -1.02894,0.63195 -2.44238,1.98438 -2.70783,2.59094 -5.10912,4.05948 -9.22277,5.64029004 -1.90317,0.73137 -1.91745,0.74423 -2.46107,2.21673996 -0.75797,2.05312 -1.60145,2.63844 -2.42035,1.67954 z m 0.94655,-4.98258 c 0.29211,-0.76121 0.16688,-3.31732 -0.23931,-4.88486 -0.21995,-0.84882 -1.16692,-3.33414 -2.10438,-5.52294 -2.3305,-5.44131 -2.78737,-7.02445 -2.78737,-9.65874 0,-3.91522 1.38581,-7.03389 5.30962,-11.94889 2.34364,-2.93567 2.73614,-3.2848 3.69285,-3.2848 1.00805,0 1.25729,0.85763 0.90206,3.10404 -0.17876,1.13043 -0.40858,3.0694 -0.51073,4.30882 -0.16604,2.01481 -0.13024,2.32199 0.33806,2.90031 l 0.52377,0.64683 1.15604,-0.75338 c 3.90102,-2.54225 6.67883,-6.36141 8.20018,-11.27428 0.50699,-1.6372 0.60623,-2.51817 0.58019,-5.15005 -0.0389,-3.93108 -0.63251,-6.35837 -2.45884,-10.05417 -1.69155,-3.42305 -3.45003,-5.75425 -5.94892,-7.88642 -2.22236,-1.89622 -5.93075,-4.5376 -6.11373,-4.35462 -0.0643,0.0643 0.003,0.74768 0.14901,1.5187 0.14622,0.77102 0.26585,2.4467 0.26585,3.72372 0,5.51277 -1.90372,10.72439 -6.23448,17.06747 -3.37334,4.94079 -7.3488,12.23544 -8.48438,15.56814 -0.88373,2.59359 -1.22683,5.73339 -0.88775,8.12419 0.51155,3.60695 2.23302,6.2649 6.66029,10.28352 3.29848,2.99402 6.00962,5.7669 6.86142,7.01768 0.70291,1.03214004 0.89658,1.11946004 1.13055,0.50973 z m 5.37575,-2.19461 c 3.04024,-1.29942 4.19649,-2.11313 6.82339,-4.80195 2.4486,-2.50631 5.02112,-4.49117 5.82086,-4.49117 1.35051,0 1.51485,1.19854 0.54496,3.97456 -0.58129,1.66378 -0.59805,1.82249 -0.16823,1.59246 1.77177,-0.94823 5.30853,-5.77929 6.59675,-9.01088 2.51938,-6.32006 2.32096,-15.42824 -0.46377,-21.28868 -0.83219,-1.75133 -0.80782,-1.77111 -1.45938,1.18462 -0.81426,3.69381 -2.73001,7.67304 -5.41366,11.24479 -0.65602,0.87313 -3.19098,3.61546 -5.63323,6.09407 -4.79292,4.86429 -6.03236,6.61628 -7.65751,10.8241 -0.65454,1.69472 -1.66943,5.70371 -1.44392,5.70371 0.0298,0 1.13393,-0.46153 2.45374,-1.02563 z m -16.18204,-4.76971 c -3.41415,-3.44126 -4.89237,-5.4838 -5.65916,-7.81958 -0.74084,-2.25676 -0.98349,-5.56665 -0.59241,-8.08092 0.37353,-2.40147 1.64468,-6.24902 2.68088,-8.11459 l 0.75968,-1.36772 -0.42013,-1.93957 c -0.23107,-1.06677 -0.42691,-3.03455 -0.4352,-4.37285 -0.008,-1.34347 -0.12014,-2.36835 -0.24967,-2.28829 -0.76451,0.47249 -3.46681,4.35344 -4.505,6.4699 -2.19317,4.47106 -2.91569,7.47628 -2.89601,12.04565 0.0154,3.57756 0.45843,5.46521 2.05468,8.75472 1.4112,2.90817 3.54928,5.33535 6.16008,6.99301 1.75313,1.1131 4.85746,2.55077 5.58503,2.58652 0.20869,0.0103 -0.90856,-1.27957 -2.48277,-2.86628 z m 67.65387,4.55028 c -0.56008,-0.10788 -0.59531,-0.24406 -0.59531,-2.30084 v -2.18618 l 1.41783,0.11758 c 1.27688,0.10589 1.50384,0.0407 2.28295,-0.65541 1.59069,-1.42128 1.51644,-1.98448 -1.82085,-13.81117 -1.61605,-5.72693 -2.93827,-10.51668 -2.93827,-10.64389 0,-0.1272 1.17195,-0.23128 2.60433,-0.23128 h 2.60432 l 0.54854,2.05052 c 0.3017,1.12778 1.11634,4.28073 1.81031,7.00654 0.69398,2.72582 1.30633,4.91147 1.36079,4.85702 0.0545,-0.0545 0.75235,-2.76092 1.55088,-6.01436 0.79853,-3.25344 1.56995,-6.36183 1.71426,-6.90754 l 0.26239,-0.99218 h 2.53279 2.53279 l -0.17065,0.90959 c -0.28257,1.50625 -6.41374,22.91519 -7.04448,24.59805 -0.71199,1.89967 -2.40645,3.69985 -3.86332,4.10438 -0.99288,0.27569 -3.59325,0.32954 -4.7893,0.0992 z m -16.73489,-22.56744 v -14.81667 h 7.27604 7.27604 v 2.24896 2.24896 h -4.49792 -4.49791 v 4.10104 4.10104 h 3.96875 3.96874 v 2.38125 2.38125 h -3.96874 -3.96875 v 6.08542 6.08541 h -2.77813 -2.77812 z m 34.39583,4.28625 c 0,-7.83755 0.0812,-10.61161 0.3175,-10.84792 0.19594,-0.19594 1.15828,-0.3175 2.51354,-0.3175 h 2.19604 l 0.002,1.52135 0.002,1.52136 0.41282,-0.79375 c 1.02841,-1.97737 2.41513,-2.77813 4.81103,-2.77813 2.01019,0 3.62582,0.80499 4.69123,2.3374 l 0.79729,1.14677 0.0787,9.37042 0.0788,9.37041 h -2.51547 -2.51547 l -0.0768,-8.31343 -0.0768,-8.31343 -0.64143,-0.6824 c -0.5111,-0.54374 -0.8915,-0.6824 -1.87211,-0.6824 -1.42004,0 -2.22493,0.64906 -2.65215,2.1387 -0.14205,0.49528 -0.25827,4.09472 -0.25827,7.99876 0,5.79904 -0.0692,7.16743 -0.37797,7.47623 -0.26878,0.26878 -1.03314,0.37797 -2.64583,0.37797 h -2.26786 z m 18.42161,9.70359 c -0.39099,-1.95493 -0.22483,-2.36027 3.91816,-9.55807 l 4.0738,-7.07761 -2.88804,-0.0331 c -1.58842,-0.0182 -3.0071,-0.0628 -3.15262,-0.0992 -0.14552,-0.0364 -0.62177,-0.081 -1.05833,-0.0992 l -0.79375,-0.0331 v -2.11667 -2.11666 h 6.74688 6.74687 l -0.008,2.18281 -0.008,2.18281 -3.65244,6.48229 -3.65244,6.4823 3.99086,0.13229 3.99087,0.13229 v 2.18262 2.18262 l -7.04453,1.9e-4 -7.04453,1.9e-4 z"
       id="path1" /></g></svg>
